<?xml version="1.0" encoding="UTF-8"?>
<svg version="1.1" viewBox="0 0 476 357" xmlns="http://www.w3.org/2000/svg" xmlns:xlink="http://www.w3.org/1999/xlink">
<style><![CDATA[.B{overflow:visible}.C{stroke-miterlimit:10}]]></style>
<defs>
<symbol id="i" class="B">
<path d="m2.2 0v-.27c-.58 0-.67 0-.67-.39v-5.3l-1.2.09v.27c.61 0 .67.06.67.48v4.5c0 .39-.09.39-.67.39v.27l.97-.03z"/>
</symbol>
<symbol id="a" class="B">
<path d="m3.6-1c0-.08-.06-.09-.11-.09-.08 0-.09.05-.11.11-.3.89-1.1.89-1.2.89-.42 0-.77-.25-.97-.58-.27-.41-.27-.99-.27-1.3h2.4c.19 0 .2 0 .2-.17 0-.86-.45-1.7-1.5-1.7-1 0-1.8.89-1.8 2 0 1.2.92 2 1.9 2 1.1 0 1.4-.95 1.4-1.1zm-.56-1.1h-2c.05-1.3.78-1.5 1.1-1.5.88 0 .97 1.2.97 1.5z"/>
</symbol>
<symbol id="h" class="B">
<path d="m3.1-1.1c0-.45-.27-.72-.36-.81-.28-.28-.62-.34-.98-.42-.48-.09-1.1-.2-1.1-.7 0-.31.22-.66.97-.66.95 0 .98.78 1 1 .02.08.11.08.11.08.11 0 .11-.05.11-.22v-.86c0-.16 0-.22-.09-.22-.05 0-.06 0-.17.11l-.14.14c-.33-.25-.69-.25-.81-.25-1.1 0-1.4.57-1.4 1.1a.9.9 0 00.38.73c.28.23.52.28 1.1.41.19.03.91.17.91.8 0 .44-.31.78-.98.78-.73 0-1-.5-1.2-1.2-.02-.11-.04-.14-.13-.14-.11 0-.11.06-.11.22v1.1c0 .14 0 .2.09.2.05 0 .06 0 .22-.17.02-.02.02-.03.17-.2.39.38.77.38.95.38 1 0 1.4-.58 1.4-1.2z"/>
</symbol>
<symbol id="f" class="B">
<path d="m2.1 0v-.27c-.58 0-.61-.05-.61-.38v-3.2l-1.2.09v.27c.56 0 .64.05.64.47v2.3c0 .39-.09.39-.67.39v.27l.95-.03zm-.48-5.2c0-.23-.2-.45-.45-.45-.3 0-.47.23-.47.45 0 .23.2.45.45.45.3 0 .47-.23.47-.45z"/>
</symbol>
<symbol id="g" class="B">
<path d="m4.6 0v-.27c-.45 0-.67 0-.67-.27v-1.6c0-.75 0-1-.27-1.3-.12-.14-.41-.31-.91-.31-.64 0-1 .36-1.3.91v-.91l-1.2.09v.27c.59 0 .67.06.67.48v2.3c0 .39-.09.39-.67.39v.28l.97-.03.97.03v-.27c-.58 0-.67 0-.67-.39v-1.6c0-.89.61-1.4 1.2-1.4.53 0 .64.47.64.95v2c0 .39-.11.39-.69.39v.26l.98-.03z"/>
</symbol>
<symbol id="ai" class="B">
<path d="m3.1-5.5c0-.33-.31-.61-.77-.61-.61 0-1.3.45-1.3 1.4v1h-.69v.27h.69v2.8c0 .39-.09.39-.67.39v.25l.98-.03 1.1.03v-.27h-.19c-.62 0-.66-.09-.66-.41v-2.8h.98v-.27h-1v-1c0-.77.41-1.2.8-1.2.02 0 .16 0 .28.06-.11.03-.27.16-.27.36s.14.38.38.38c.25 0 .38-.17.38-.37z"/>
</symbol>
<symbol id="e" class="B">
<path d="m4.1-1.8c0-1.1-.86-2-1.9-2-1.1 0-1.9.95-1.9 2 0 1.1.91 1.9 1.9 1.9 1 0 1.9-.84 1.9-1.9zm-.7-.08c0 .31 0 .78-.2 1.2a1.1 1.1 0 01-1 .64c-.37 0-.75-.17-.98-.58-.22-.37-.22-.91-.22-1.2 0-.33 0-.8.22-1.2.23-.39.64-.58.98-.58.38 0 .75.2.97.56.23.38.23.88.23 1.2z"/>
</symbol>
<symbol id="c" class="B">
<path d="m3.1-3.3c0-.27-.27-.52-.64-.52-.62 0-.94.58-1.1.94v-.94l-1.2.09v.27c.61 0 .69.06.69.48v2.3c0 .39-.09.39-.69.39v.28l1-.03 1.1.03v-.27h-.19c-.64 0-.66-.09-.66-.41v-1.3c0-.86.36-1.6 1-1.6h.09c-.02.02-.19.11-.19.34s.17.38.38.38c.14 0 .36-.11.36-.39z"/>
</symbol>
<symbol id="o" class="B">
<path d="m7 0v-.27c-.45 0-.67 0-.69-.27v-1.6c0-.75 0-1-.27-1.3-.11-.14-.41-.31-.91-.31-.72 0-1.1.52-1.2.84-.12-.75-.77-.84-1.1-.84-.64 0-1 .36-1.3.91v-.91l-1.2.09v.27c.59 0 .67.06.67.48v2.3c0 .39-.09.39-.67.39v.28l.97-.03.97.03v-.27c-.58 0-.67 0-.67-.39v-1.6c0-.89.61-1.4 1.2-1.4.53 0 .64.47.64.95v2c0 .39-.11.39-.69.39v.26l.98-.03.97.03v-.27c-.58 0-.67 0-.67-.39v-1.6c0-.89.61-1.4 1.2-1.4s.64.47.64.95v2c0 .39-.09.39-.67.39v.26l.98-.03z"/>
</symbol>
<symbol id="d" class="B">
<path d="m4.2-.77v-.48h-.22v.48c0 .5-.22.55-.31.55-.28 0-.31-.39-.31-.42v-1.7c0-.36 0-.7-.31-1-.34-.34-.77-.48-1.2-.48-.7 0-1.3.41-1.3.98 0 .25.17.41.39.41.25 0 .41-.17.41-.41 0-.09-.05-.39-.45-.39.23-.3.66-.41.94-.41.42 0 .92.34.92 1.1v.33c-.44.02-1 .05-1.6.31-.65.28-.87.74-.87 1.1 0 .7.83.92 1.4.92a1.2 1.2 0 001.1-.75c.03.34.27.7.67.7.17 0 .7-.11.7-.81zm-1.4-.43c0 .81-.62 1.1-1 1.1-.42 0-.78-.3-.78-.73 0-.48.37-1.2 1.8-1.2z"/>
</symbol>
<symbol id="b" class="B">
<path d="m2.9-1.1v-.48h-.22v.47c0 .64-.27.97-.58.97-.58 0-.58-.78-.58-.92v-2.4h1.2v-.27h-1.2v-1.6h-.22c-.02.7-.27 1.6-1.1 1.7v.19h.73v2.4c.01 1 .8 1.2 1.1 1.2.61 0 .86-.61.86-1.2z"/>
</symbol>
<symbol id="x" class="B">
<path d="m4.5-1.9c0-1.1-.84-2-1.8-2-.69 0-1 .38-1.2.56v-.56l-1.2.09v.27c.63 0 .69.05.69.42v4c0 .39-.09.39-.69.39v.27l.97-.02.98.02v-.27c-.58 0-.67 0-.67-.39v-1.5c.05.14.41.61 1.1.61 1-.01 1.9-.85 1.9-2zm-.72 0c0 1-.59 1.8-1.2 1.8-.36 0-.69-.17-.91-.53-.12-.17-.12-.19-.12-.36v-1.9c.25-.45.67-.7 1.1-.7.63 0 1.2.77 1.2 1.8z"/>
</symbol>
<symbol id="m" class="B">
<path d="m4.6 0v-.27c-.61 0-.67-.06-.67-.48v-3.1l-1.3.09v.27c.61 0 .69.06.69.48v1.5c0 .75-.42 1.3-1 1.3-.73 0-.77-.41-.77-.86v-2.9l-1.3.09v.27c.67 0 .67.02.67.8v1.3c0 .67 0 1.4 1.3 1.4.48 0 .86-.23 1.1-.78v.78z"/>
</symbol>
<symbol id="ab" class="B">
<path d="m4.6 0v-.27c-.59 0-.67-.06-.67-.48v-5.2l-1.2.09v.27c.59 0 .67.06.67.48v1.9c-.25-.31-.62-.53-1.1-.53-1 0-1.9.84-1.9 2 0 1.1.84 2 1.8 2a1.5 1.5 0 001.2-.56v.56zm-1.3-1c0 .16 0 .17-.09.31-.27.42-.64.61-1 .61-.39 0-.7-.22-.91-.55-.23-.36-.25-.86-.25-1.2 0-.33.02-.84.27-1.2.17-.27.5-.55.97-.55a1.1 1.1 0 01.94.52c.09.14.09.16.09.31z"/>
</symbol>
<symbol id="bb" class="B">
<path d="m4.4-3.4v-.27c-.2.02-.45.02-.66.02l-.75-.02v.27c.33 0 .42.2.42.38 0 .08-.02.11-.05.2l-.89 2.2-.97-2.4c-.05-.12-.05-.16-.05-.16 0-.22.33-.22.48-.22v-.27l-.92.03c-.23 0-.58 0-.83-.02v.27c.53 0 .58.05.69.31l1.2 3.1c.06.11.08.16.19.16s.14-.08.19-.16l1.1-2.8c.08-.2.22-.58.8-.58z"/>
</symbol>
<symbol id="aj" class="B">
<path d="m4.4 0v-.27c-.47 0-.61-.02-.81-.27l-1.2-1.5.8-.97c.27-.31.61-.45 1-.45v-.27c-.22.02-.48.02-.7.02-.27 0-.72-.02-.83-.02v.27c.19.02.25.13.25.27s-.09.25-.12.3l-.55.67-.67-.86c-.08-.09-.08-.11-.08-.16 0-.14.14-.22.31-.22v-.27l-.94.02c-.19 0-.59 0-.83-.02v.27c.61 0 .63 0 1 .53l.84 1.1-.81 1c-.4.5-.92.51-1.1.51v.27l.72-.03.81.03v-.27c-.19-.03-.25-.14-.25-.27 0-.19.25-.48.78-1.1l.66.88c.06.09.17.23.17.28 0 .08-.08.2-.3.22v.27l.92-.03z"/>
</symbol>
<symbol id="n" class="B">
<path d="m3.6-1c0-.08-.08-.08-.11-.08-.08 0-.09.03-.11.08-.25.81-.81.91-1.1.91-.47 0-1.2-.37-1.2-1.8 0-1.4.7-1.8 1.2-1.8.08 0 .63.02.94.33-.36.02-.41.28-.41.39 0 .22.14.39.39.39.22 0 .39-.14.39-.41 0-.58-.66-.92-1.3-.92-1.1 0-1.9.94-1.9 2 0 1.1.86 2 1.9 2a1.4 1.4 0 001.4-1.1z"/>
</symbol>
<symbol id="as" class="B">
<path d="m2.4-1.6v-.5h-2.3v.5z"/>
</symbol>
<symbol id="ak" class="B">
<path d="m4.2-3.5c0-.16-.09-.44-.44-.44-.17 0-.55.06-.92.41-.36-.28-.72-.3-.91-.3-.81 0-1.4.59-1.4 1.2 0 .39.19.72.41.89-.11.14-.27.42-.27.72 0 .27.11.59.38.77-.52.16-.8.53-.8.88 0 .63.86 1.1 1.9 1.1 1 0 1.9-.44 1.9-1.1 0-.31-.11-.75-.55-.98-.47-.25-.97-.25-1.5-.25h-.64c-.28-.06-.45-.32-.45-.61 0-.03 0-.22.14-.41.34.25.69.28.86.28.8 0 1.4-.61 1.4-1.3 0-.33-.12-.64-.34-.84.31-.3.61-.33.77-.33h.09c-.09.03-.14.14-.14.23 0 .16.11.25.25.25.09 0 .25-.06.25-.25zm-1.5.92c0 .23-.02.52-.14.73-.06.09-.27.34-.61.34-.75 0-.75-.86-.75-1.1 0-.23 0-.52.14-.73.06-.09.27-.34.61-.34.75 0 .75.88.75 1.1zm.96 3.2c0 .47-.62.89-1.5.89-.87 0-1.5-.44-1.5-.89 0-.41.33-.72.72-.75h.5c.75 0 1.7 0 1.7.75z"/>
</symbol>
<symbol id="r" class="B">
<path d="m4.5-1.9c0-1.1-.84-2-1.8-2-.67 0-1 .41-1.2.56v-2.8l-1.2.09v.27c.61 0 .69.06.69.48v5.2h.2l.31-.53c.14.19.5.63 1.1.63 1-.01 1.9-.85 1.9-2zm-.72-.02c0 .31-.02.84-.27 1.2-.19.27-.52.55-.97.55-.39 0-.7-.2-.91-.53-.12-.17-.12-.2-.12-.36v-1.8c0-.16 0-.17.09-.31.33-.48.81-.55 1-.55.39 0 .7.22.91.55.23.36.25.84.25 1.2z"/>
</symbol>
<symbol id="at" class="B">
<path d="m4.4-3.4v-.27c-.2.02-.45.02-.66.02l-.75-.02v.27c.27 0 .41.16.41.38 0 .08 0 .09-.05.2l-.87 2.1-.95-2.3c-.03-.08-.06-.12-.06-.16 0-.22.33-.22.48-.22v-.27l-.94.03c-.23 0-.58 0-.83-.02v.27c.41 0 .58 0 .69.3l1.3 3.2-.22.52c-.19.47-.42 1.1-.98 1.1-.03 0-.23 0-.41-.16.28-.03.34-.22.34-.36 0-.22-.17-.36-.36-.36-.17 0-.36.11-.36.38 0 .38.36.69.78.69.55 0 .91-.48 1.1-.98l1.5-3.7c.23-.55.67-.55.81-.55z"/>
</symbol>
<symbol id="bc" class="B">
<path d="m4.4 0v-.27c-.33 0-.52 0-.84-.45l-1.1-1.6c-.02-.03-.06-.08-.06-.11s.63-.55.7-.61c.55-.45.91-.47 1.1-.47v-.27l-.61.02c-.31 0-.84-.02-.97-.02v.27c.17 0 .25.09.25.22 0 .17-.11.27-.19.33l-1.2 1.1v-4.2l-1.2.09v.27c.61 0 .69.06.69.48v4.5c0 .39-.09.39-.69.39v.27l.95-.03.95.03v-.27c-.58 0-.69 0-.69-.39v-.89l.56-.47 1 1.6c0 .17-.16.2-.31.2v.27l.92-.03.77.03z"/>
</symbol>
<symbol id="bq" class="B">
<path d="m6.1-3.4v-.27c-.19.02-.44.02-.64.02l-.8-.02v.27c.31 0 .5.16.5.41 0 .06 0 .08-.05.19l-.78 2.2-.86-2.4c-.03-.09-.05-.12-.05-.16 0-.23.34-.23.52-.23v-.27l-.89.02c-.27 0-.52 0-.78-.02v.27c.33 0 .47.02.55.13.05.05.14.31.2.48l-.75 2.1-.81-2.3c-.05-.11-.05-.12-.05-.16 0-.23.34-.23.52-.23v-.27l-.95.02-.8-.02v.27c.44 0 .53.02.64.3l1.1 3.1c.03.13.06.19.17.19s.13-.05.17-.17l.88-2.4.88 2.4c.05.09.06.16.19.16.11 0 .13-.08.17-.16l1-2.8c.16-.42.42-.55.73-.55z"/>
</symbol>
<symbol id="bd" class="B">
<path d="m4.6 0v-.27c-.45 0-.67 0-.67-.27v-1.6c0-.75 0-1-.27-1.3-.12-.14-.41-.31-.91-.31-.73 0-1.1.52-1.2.83h-.02v-3l-1.2.09v.27c.59 0 .67.06.67.48v4.5c0 .39-.09.39-.67.39v.27l.97-.03.97.03v-.27c-.58 0-.67 0-.67-.39v-1.6c0-.89.61-1.4 1.2-1.4.53 0 .64.47.64.95v2c0 .39-.11.39-.69.39v.26l.98-.03z"/>
</symbol>
<symbol id="cm" class="B">
<path d="m4.6 0v-.27c-.58 0-.67 0-.67-.39v-3.2l-1.1.08-.16.02c-.02.02-.05.02-.16.02h-1v-.98c0-.86.75-1.2 1.3-1.2.27 0 .58.09.75.3-.36.02-.41.25-.41.39 0 .28.22.39.39.39.19 0 .39-.12.39-.39 0-.52-.47-.87-1.1-.87-.81 0-1.8.44-1.8 1.4v.98h-.67v.27h.69v2.8c0 .39-.09.39-.69.39v.24l.97-.03.95.03v-.27c-.58 0-.67 0-.67-.39v-2.8h1.4c.41 0 .47.11.47.47v2.3c0 .39-.09.39-.67.39v.27l.95-.03z"/>
</symbol>
<symbol id="ae" class="B">
<path d="m4.3-1.6c0-.86-.58-1.6-1.3-1.8l-1.1-.27c-.53-.12-.87-.59-.87-1.1 0-.61.47-1.1 1.1-1.1 1.4 0 1.6 1.4 1.7 1.8.02.06.02.11.11.11.11 0 .11-.05.11-.2v-1.8c0-.14 0-.2-.09-.2-.06 0-.06.02-.12.11l-.31.5c-.25-.25-.61-.61-1.4-.61-.97 0-1.7.77-1.7 1.7 0 .72.45 1.4 1.1 1.6.09.03.55.13 1.1.28.23.06.5.13.73.44.19.22.28.52.28.8 0 .61-.44 1.2-1.2 1.2-.25 0-.91-.05-1.4-.47-.51-.48-.55-1-.55-1.3-.01-.1-.07-.1-.11-.1-.11 0-.11.06-.11.22v1.7c0 .14 0 .2.09.2.07.01.07-.01.13-.1 0 0 .03-.03.31-.5.27.3.83.61 1.6.61 1 0 1.7-.84 1.7-1.8z"/>
</symbol>
<symbol id="br" class="B">
<path d="m6.2 0v-.27h-.2c-.67 0-.69-.09-.69-.41v-4.6c0-.3.02-.41.69-.41h.2v-.27c-.3.03-.94.03-1.3.03s-.98 0-1.3-.03v.27h.2c.67 0 .69.11.69.41v2h-2.6v-2c0-.3.03-.41.69-.41h.2v-.27c-.3.03-.94.03-1.3.03s-.97 0-1.3-.03v.27h.22c.66 0 .67.11.67.41v4.6c0 .31-.02.41-.67.41h-.22v.27c.31-.03.95-.03 1.3-.03l1.3.03v-.27h-.2c-.66 0-.69-.09-.69-.41v-2.3h2.6v2.3c0 .31-.02.41-.69.41h-.2v.27c.3-.03.94-.03 1.3-.03z"/>
</symbol>
<symbol id="ac" class="B">
<path d="m6.2 0v-.27h-.14c-.53 0-.64-.06-.73-.34l-1.9-5.4c-.05-.11-.06-.17-.2-.17-.12 0-.16.05-.2.17l-1.8 5.2c-.16.44-.5.56-.97.58v.26l.87-.03 1 .03v-.27c-.44 0-.66-.22-.66-.44 0-.03.02-.12.02-.14l.41-1.1h2.1l.47 1.3c0 .03.02.08.02.11 0 .27-.48.27-.72.27v.26c.31-.03.92-.03 1.2-.03zm-2.2-2.2h-1.9l.97-2.8z"/>
</symbol>
<symbol id="s" class="B">
<path d="m5.4-4.3c0-.84-.86-1.6-2-1.6h-3.1v.27h.22c.66 0 .67.11.67.41v4.6c0 .31-.02.41-.67.41h-.22v.26c.31-.03.95-.03 1.3-.03l1.3.03v-.27h-.2c-.66 0-.67-.09-.67-.41v-2.1h1.4c1 0 2-.7 2-1.6zm-.89 0c0 .41 0 1.3-1.4 1.3h-1.2v-2.3c0-.3.02-.36.42-.36h.77c1.4 0 1.4.92 1.4 1.3z"/>
</symbol>
<symbol id="j" class="B">
<path d="m3.9-1.7c0-.67-.52-1.2-1.1-1.5l-.77-.44c-.42-.23-.8-.58-.8-1 0-.59.36-1.1.91-1.1.48 0 .86.36 1 .83-.03 0-.08-.02-.12-.02-.22 0-.39.19-.39.39a.4.4 0 00.39.41c.22 0 .41-.19.41-.41 0-.83-.5-1.6-1.3-1.6-.81 0-1.4.69-1.4 1.5a1.7 1.7 0 00.34 1c-.39.23-.7.56-.7 1 0 .66.53 1.2 1.1 1.5l.77.44c.44.23.81.59.81 1.1 0 .58-.36 1.1-.91 1.1-.5 0-.86-.36-1-.83.03.02.08.02.11.02a.4.4 0 00.41-.39.4.4 0 00-.41-.39c-.21-.01-.4.16-.4.38 0 .84.5 1.6 1.3 1.6.8 0 1.4-.69 1.4-1.5 0-.37-.12-.72-.36-1 .39-.23.7-.56.7-1zm-.67 0c0 .3-.03.61-.19.81-.16-.14-.33-.27-.52-.39l-.77-.42c-.37-.22-.71-.55-.71-.97 0-.3.02-.61.19-.81.14.14.31.27.5.38l.78.44c.38.22.72.53.72.97z"/>
</symbol>
<symbol id="al" class="B">
<path d="m4-1.8c0-1.1-.77-1.9-1.7-1.9-.58 0-.91.44-1.1.86v-.22c0-2.2 1.1-2.5 1.5-2.5.2 0 .56.05.75.34-.12 0-.47 0-.47.39 0 .27.2.39.39.39.14 0 .41-.08.41-.42 0-.52-.37-.92-1.1-.92-1.1 0-2.3 1.1-2.3 3 0 2.3 1 2.9 1.8 2.9.95 0 1.8-.81 1.8-2zm-.78 0c0 .41 0 .84-.14 1.2-.27.52-.66.56-.86.56-.55 0-.81-.52-.86-.66-.16-.41-.16-1.1-.16-1.2 0-.67.28-1.5 1.1-1.5.13 0 .53 0 .8.53.16.31.16.77.16 1.2z"/>
</symbol>
<symbol id="k" class="B">
<path d="m1.7-.45c0-.25-.2-.47-.45-.47s-.46.22-.46.47.2.45.45.45.45-.2.45-.45z"/>
</symbol>
<symbol id="au" class="B">
<path d="m4.1-1.4v-.27h-.86v-3.9c0-.17 0-.22-.14-.22-.08 0-.09 0-.17.09l-2.7 4.1v.27h2.3v.75c0 .31-.03.41-.66.41h-.18v.26c.36-.03.8-.03 1.2-.03l1.2.03v-.27h-.19c-.64 0-.66-.09-.66-.41v-.75zm-1.5-.27h-2.1l2.1-3.2z"/>
</symbol>
<symbol id="be" class="B">
<path d="m5-2.2h-.22c-.09.89-.22 2-1.7 2h-.7c-.41 0-.44-.06-.44-.34v-4.6c0-.3 0-.42.83-.42h.28v-.27c-.31.03-1.1.03-1.4.03-.33 0-1 0-1.3-.03v.27h.21c.66 0 .67.11.67.41v4.6c0 .31-.02.41-.67.41h-.22v.25h4.5z"/>
</symbol>
<symbol id="af" class="B">
<path d="m2.9 0v-.27h-.22c-.69 0-.72-.09-.72-.41v-4.6c0-.3.03-.41.72-.41h.22v-.27c-.3.03-.98.03-1.3.03s-1 0-1.3-.03v.27h.23c.69 0 .7.11.7.41v4.6c0 .31-.02.41-.7.41h-.24v.27c.31-.03 1-.03 1.3-.03z"/>
</symbol>
<symbol id="bf" class="B">
<path d="m7.6 0v-.27h-.2c-.67 0-.69-.09-.69-.41v-4.6c0-.3.02-.41.69-.41h.2v-.27h-1.4c-.23 0-.23.02-.3.17l-1.9 4.9-1.9-4.8c-.08-.19-.09-.19-.3-.19h-1.5v.27h.22c.66 0 .67.11.67.41v4.3c0 .23 0 .64-.89.64v.26l1-.03 1 .03v-.27c-.89 0-.89-.41-.89-.64v-4.7l2.1 5.4c.03.11.08.19.17.19s.13-.06.16-.17l2.1-5.5v5c0 .31-.02.41-.67.41h-.22v.26c.33-.03.91-.03 1.2-.03z"/>
</symbol>
<symbol id="t" class="B">
<path d="m5.6-2.2h-.22c-.22 1.3-.42 2-1.9 2h-1.1c-.41 0-.44-.06-.44-.34v-2.3h.78c.84 0 .94.28.94 1h.22v-2.3h-.22c0 .75-.09 1-.94 1h-.78v-2.1c0-.28.03-.34.44-.34h1.1c1.3 0 1.6.48 1.7 1.7h.22l-.23-1.9h-4.9v.27h.22c.66 0 .67.09.67.41v4.5c0 .31-.02.41-.67.41h-.22v.24h5z"/>
</symbol>
<symbol id="bs" class="B">
<path d="m4-1.5c0-.7-.55-1.4-1.4-1.6.72-.23 1.2-.83 1.2-1.5 0-.7-.77-1.2-1.6-1.2-.87 0-1.5.52-1.5 1.2 0 .28.19.45.44.45.28 0 .45-.19.45-.45-.01-.42-.41-.42-.55-.42.27-.42.84-.53 1.2-.53.34 0 .83.19.83.95 0 .11-.02.61-.25 1-.25.41-.55.44-.77.44-.06.02-.27.03-.33.03-.08 0-.14.02-.14.11s.06.09.22.09h.38c.7 0 1 .58 1 1.4 0 1.2-.59 1.4-.98 1.4s-1-.15-1.3-.65c.3.03.56-.16.56-.48 0-.31-.23-.48-.48-.48-.2 0-.48.13-.48.5 0 .8.81 1.4 1.8 1.4 1 0 1.8-.78 1.8-1.7z"/>
</symbol>
<symbol id="av" class="B">
<path d="m1.8-.02c0-.55-.2-.91-.55-.91-.3 0-.45.23-.45.47 0 .22.14.45.45.45.13 0 .25-.05.34-.14.02.69-.22 1.2-.61 1.6-.05.05-.06.05-.06.09 0 .06.05.09.09.09.11 0 .78-.69.78-1.7z"/>
</symbol>
<symbol id="bt" class="B">
<path d="m3.9-1.7c0-1-.7-1.9-1.6-1.9-.41 0-.78.14-1.1.44v-1.7c.17.05.45.11.73.11 1.1 0 1.7-.78 1.7-.89 0-.06-.03-.09-.09-.09 0 0-.02 0-.06.02-.17.08-.59.25-1.2.25-.36 0-.75-.05-1.2-.23-.07-.05-.12-.05-.12-.05-.08 0-.08.08-.08.22v2.6c0 .16 0 .23.13.23.05 0 .08-.03.11-.08.09-.14.41-.61 1.1-.61.45 0 .67.39.73.55.14.33.16.66.16 1.1 0 .3 0 .83-.2 1.2a1.1 1.1 0 01-.92.56c-.65 0-1.1-.47-1.3-.97.03 0 .06.02.16.02.28 0 .42-.22.42-.42a.4.4 0 00-.42-.42c-.12 0-.42.06-.42.45 0 .75.59 1.6 1.6 1.6a1.9 1.9 0 001.9-1.9z"/>
</symbol>
<symbol id="aw" class="B">
<path d="m6.3-2.1v-.27l-1 .03c-.34 0-1.1 0-1.4-.03v.27h.28c.77 0 .8.09.8.42v.55c0 .97-1.1 1-1.3 1-.56 0-2.3-.3-2.3-2.9s1.7-2.9 2.2-2.9c.92 0 1.7.78 1.9 2 .02.13.02.16.13.16.14 0 .14-.03.14-.22v-2c0-.14 0-.2-.09-.2-.03 0-.06 0-.14.11l-.42.64c-.28-.28-.75-.75-1.6-.75a3.1 3.1 0 00-3 3.1c-.01 1.7 1.4 3.1 3 3.1.62 0 1.3-.22 1.6-.73.11.19.45.53.55.53.08 0 .08-.06.08-.19v-1.5c0-.34.05-.39.59-.39z"/>
</symbol>
<symbol id="l" class="B">
<path d="m3.6 0v-.27h-.28c-.78 0-.8-.09-.8-.42v-4.8c0-.2 0-.22-.2-.22-.53.55-1.3.55-1.6.55v.27c.17 0 .69 0 1.1-.22v4.5c0 .31-.03.42-.81.42h-.27v.26c.3-.03 1-.03 1.4-.03z"/>
</symbol>
<symbol id="u" class="B">
<path d="m3.9-1.5h-.22c-.03.25-.09.64-.19.77-.06.06-.62.06-.81.06h-1.6l.92-.89c1.3-1.2 1.9-1.7 1.9-2.5 0-.98-.77-1.7-1.8-1.7a1.6 1.6 0 00-1.6 1.6c0 .48.42.48.45.48.14 0 .45-.11.45-.47 0-.22-.16-.44-.47-.44h-.1c.2-.56.67-.87 1.2-.87.78 0 1.2.7 1.2 1.4 0 .69-.44 1.4-.91 1.9l-1.7 1.9c-.09.09-.09.11-.09.31h3.2z"/>
</symbol>
<symbol id="bu" class="B">
<path d="m4.2-5.6h-2.1c-1.1 0-1.1-.11-1.1-.28h-.21l-.29 1.8h.22c.02-.14.09-.69.22-.78.05-.06.73-.06.84-.06h1.8l-.97 1.4a6.1 6.1 0 00-1 3.2c0 .08 0 .47.41.47.39 0 .39-.39.39-.47v-.44a11 11 0 01.09-1.4 3.7 3.7 0 01.55-1.5l1.2-1.6c.08-.09.08-.12.08-.3z"/>
</symbol>
<symbol id="bg" class="B">
<path d="m5.3-3.9-.23-1.9h-4.8v.27h.22c.66 0 .67.09.67.41v4.5c0 .31-.02.41-.67.41h-.22v.26c.31-.03.98-.03 1.3-.03l1.5.03v-.27h-.28c-.83 0-.83-.11-.83-.42v-2.1h.75c.83 0 .92.28.92 1h.2v-2.3h-.2c0 .73-.09 1-.92 1h-.75v-2.2c0-.28.03-.34.44-.34h1c1.3 0 1.5.48 1.7 1.7z"/>
</symbol>
<symbol id="cn" class="B">
<path d="m4.6 0v-.27c-.58 0-.67 0-.67-.39v-5.3l-.31.06c-.03 0-.03-.02-.08-.03-.27-.12-.62-.12-.72-.12-.91 0-1.8.48-1.8 1.4v.98h-.7v.27h.69v2.8c0 .39-.09.39-.69.39v.26l.97-.03.95.03v-.27c-.58 0-.67 0-.67-.39v-2.8h1.8v2.8c0 .39-.09.39-.67.39v.27l.95-.03zm-1.2-3.7h-1.9v-.98c0-.8.66-1.2 1.3-1.2a1.9 1.9 0 01.56.08c-.08.03-.22.13-.22.34 0 .16.06.3.22.34z"/>
</symbol>
<symbol id="bv" class="B">
<path d="m4-1.4c0-.31-.09-.7-.42-1.1-.17-.19-.31-.27-.86-.61.63-.33 1-.77 1-1.3 0-.8-.77-1.3-1.6-1.3-.86 0-1.6.64-1.6 1.4 0 .16.02.55.38.95.11.11.42.31.64.47-.5.25-1.2.73-1.2 1.6 0 .92.89 1.5 1.8 1.5.97 0 1.8-.72 1.8-1.6zm-.62-3c0 .5-.33.91-.84 1.2l-1.1-.7c-.39-.25-.44-.55-.44-.7 0-.52.56-.87 1.2-.87s1.2.44 1.2 1.1zm.19 3.3c0 .64-.64 1.1-1.4 1.1-.74 0-1.4-.54-1.4-1.3 0-.5.28-1 1-1.4l1.1.67c.23.17.64.42.64.95z"/>
</symbol>
<symbol id="bh" class="B">
<path d="m6.3-.77c0-.05 0-.14-.11-.14-.09 0-.09.08-.11.14-.05.61-.36.77-.58.77-.42 0-.48-.44-.61-1.2l-.11-.69c-.16-.55-.58-.84-1-1 .83-.2 1.5-.73 1.5-1.4 0-.83-.98-1.6-2.2-1.6h-2.7v.27h.22c.66 0 .67.11.67.41v4.6c0 .31-.02.41-.67.41h-.22v.26c.31-.03.94-.03 1.3-.03l1.3.03v-.27h-.2c-.67 0-.69-.09-.69-.41v-2.2h.98c.14 0 .52 0 .81.3.33.31.33.58.33 1.2 0 .56 0 .91.36 1.2.34.31.83.36 1.1.36.67 0 .83-.7.83-.95zm-2-3.6c0 .59-.2 1.3-1.5 1.3h-.95v-2.2c0-.2 0-.31.19-.33.09-.03.34-.03.52-.03.77 0 1.7.05 1.7 1.3z"/>
</symbol>
<symbol id="bi" class="B">
<path d="m6.2-5.6v-.27l-1 .03-1-.03v.27c.89 0 .89.41.89.64v3.7l-3.1-4.5c-.08-.09-.08-.11-.25-.11h-1.5v.27h.25c.14 0 .31.02.44.03.2.02.2.03.2.19v4.5c0 .23 0 .64-.89.64v.26l1-.03 1 .03v-.27c-.89 0-.89-.41-.89-.64v-4.5l.08.11 3.5 5.2c.08.09.08.11.14.11.13 0 .13-.06.13-.22v-4.8c0-.23 0-.64.89-.64z"/>
</symbol>
<symbol id="bw" class="B">
<path d="m1.8.44v-4.2l-1.3.09v.27c.67 0 .75.06.75.48v3.4c0 .39-.08 1.1-.64 1.1-.05 0-.23 0-.47-.11.14-.03.31-.16.31-.39 0-.22-.15-.39-.4-.39-.23 0-.39.17-.39.39 0 .45.48.69.97.69.66 0 1.2-.55 1.2-1.3zm0-5.7c0-.23-.2-.45-.45-.45-.3 0-.47.23-.47.45 0 .23.2.45.45.45.3 0 .47-.23.47-.45z"/>
</symbol>
<symbol id="bx" class="B">
<path d="m4-2.8c0-2.3-1-2.9-1.8-2.9-.48 0-.91.16-1.3.55a1.8 1.8 0 00-.56 1.4c0 1.1.77 1.9 1.7 1.9.53 0 .88-.36 1.1-.86v.28c0 2-.91 2.4-1.4 2.4-.14 0-.61-.02-.84-.31.39 0 .45-.25.45-.41 0-.27-.2-.39-.41-.39-.12 0-.39.08-.39.41 0 .58.47.94 1.2.94 1.1 0 2.2-1.2 2.2-3zm-.8-.8c0 .72-.3 1.6-1.1 1.6-.12 0-.53 0-.8-.55-.16-.33-.16-.75-.16-1.2 0-.47 0-.87.19-1.2.23-.42.56-.53.86-.53.39 0 .69.28.83.67.11.28.14.83.14 1.2z"/>
</symbol>
<symbol id="by" class="B">
<path d="m5.8-2c0-.08 0-.14-.11-.14s-.11.05-.11.14c-.08 1.2-1 1.9-1.9 1.9-.53 0-2.2-.3-2.2-2.9s1.7-2.9 2.2-2.9c.95 0 1.7.8 1.9 2 .02.13.02.16.14.16.14 0 .14-.03.14-.22v-2c0-.14 0-.2-.09-.2-.05 0-.08 0-.14.11l-.44.64c-.31-.31-.77-.75-1.6-.75-1.6 0-3 1.4-3 3.1 0 1.8 1.4 3.1 3 3.1 1.4 0 2.3-1.2 2.3-2.2z"/>
</symbol>
<symbol id="bz" class="B">
<path d="m4-2.8c0-.69-.03-1.4-.34-2a1.6 1.6 0 00-1.5-.97c-.52 0-1.1.22-1.5 1-.28.59-.31 1.3-.31 2 0 .66.03 1.4.38 2.1a1.6 1.6 0 001.4.88c.47 0 1.1-.17 1.5-1 .28-.59.31-1.3.31-2zm-.72-.11c0 .66 0 1.2-.09 1.8-.12.81-.61 1.1-1 1.1-.34 0-.84-.22-1-1-.11-.52-.11-1.3-.11-1.8 0-.55 0-1.1.08-1.6.16-1 .81-1.1 1-1.1.28 0 .84.16 1 1 .08.48.08 1.1.08 1.7z"/>
</symbol>
<symbol id="ca" class="B">
<path d="m5.6-1.6c0-.75-.7-1.4-1.7-1.5.84-.17 1.4-.72 1.4-1.4 0-.75-.8-1.5-1.9-1.5h-3.2v.27h.2c.67 0 .69.11.69.41v4.6c0 .31-.02.41-.69.41h-.2v.26h3.4c1.1 0 1.9-.77 1.9-1.6zm-1.1-2.9a1.3 1.3 0 01-1.4 1.3h-1.3v-2.1c0-.3.02-.36.42-.36h1.1c.84 0 1.1.73 1.1 1.2zm.22 2.8c0 .63-.45 1.3-1.3 1.3h-1.1c-.41 0-.42-.06-.42-.34v-2.4h1.6c.84 0 1.2.8 1.2 1.4z"/>
</symbol>
<symbol id="cb" class="B">
<path d="m5.9-3.9-.17-1.9h-5.3l-.16 1.9h.22c.11-1.4.25-1.7 1.6-1.7l.47.02c.19.03.19.13.19.33v4.6c0 .3 0 .42-.91.42h-.34v.26c.34-.03 1.2-.03 1.6-.03l1.6.03v-.27h-.34c-.91 0-.91-.12-.91-.42v-4.6c0-.17 0-.3.16-.33.09-.02.33-.02.48-.02 1.3 0 1.4.28 1.6 1.7z"/>
</symbol>
<symbol id="cc" class="B">
<path d="m0 2.2h.27c0-.58 0-.67.39-.67h5.3l-.09-1.2h-.27c0 .61-.06.67-.48.67h-4.5c-.39 0-.39-.09-.39-.67h-.27l.03.97z"/>
</symbol>
<symbol id="ax" class="B">
<path d="m1.8 4.1c1.1 0 2-.86 2-1.9 0-1.1-.95-1.9-2-1.9-1.1 0-1.9.91-1.9 1.9 0 1 .84 1.9 1.9 1.9zm.08-.7c-.31 0-.78 0-1.2-.2a1.1 1.1 0 01-.64-1c0-.37.17-.75.58-.98.38-.22.91-.22 1.2-.22.33 0 .8 0 1.2.22.39.23.58.64.58.98 0 .38-.2.75-.56.97-.37.23-.87.23-1.2.23z"/>
</symbol>
<symbol id="cd" class="B">
<path d="m3.4 6.1h.27l-.02-.64.02-.8h-.27c0 .31-.16.5-.41.5-.06 0-.08 0-.19-.05l-2.2-.78 2.4-.86c.09-.03.13-.05.16-.05.23 0 .23.34.23.52h.27l-.02-.89.02-.78h-.27c0 .33-.02.47-.12.55-.05.05-.31.14-.48.2l-2.1-.75 2.3-.81c.11-.05.13-.05.16-.05.23 0 .23.34.23.52h.27l-.03-.96.02-.8h-.27c0 .44-.02.53-.3.64l-3.1 1.1c-.12.03-.19.06-.19.17s.05.13.17.17l2.4.88-2.4.88c-.09.05-.16.06-.16.19 0 .11.08.13.16.17l2.8 1c.42.16.55.42.55.73z"/>
</symbol>
<symbol id="bj" class="B">
<path d="m1 3.6c.08 0 .09-.06.09-.11 0-.08-.05-.09-.11-.11-.89-.3-.89-1.1-.89-1.2 0-.42.25-.77.58-.97.41-.27.98-.27 1.3-.27v2.4c0 .19 0 .2.17.2.86 0 1.7-.45 1.7-1.5 0-1-.89-1.8-2-1.8-1.2 0-2 .92-2 1.9 0 1.1.95 1.4 1.1 1.4zm1.1-.56v-2c1.3.05 1.5.78 1.5 1.1 0 .88-1.2.97-1.5.97z"/>
</symbol>
<symbol id="am" class="B">
<path d="m3.3 3.1c.27 0 .52-.27.52-.64 0-.62-.58-.94-.94-1.1h.94l-.1-1.2h-.27c0 .61-.06.69-.48.69h-2.3c-.39-.01-.39-.1-.39-.69h-.27l.03 1-.03 1.1h.27v-.19c0-.64.09-.66.41-.66h1.3c.86 0 1.6.36 1.6 1v.09c-.02-.02-.11-.19-.34-.19s-.37.17-.37.38c0 .14.11.36.39.36z"/>
</symbol>
<symbol id="an" class="B">
<path d="m.77 4.2h.48v-.22h-.48c-.5 0-.55-.22-.55-.31 0-.28.39-.31.42-.31h1.7c.36 0 .7 0 1-.31.34-.34.48-.77.48-1.2 0-.7-.41-1.3-.98-1.3-.25 0-.41.17-.41.39 0 .25.17.41.41.41.09 0 .39-.05.39-.45.3.23.41.66.41.94 0 .42-.34.92-1.1.92h-.33c-.02-.44-.05-1-.31-1.6-.28-.65-.74-.87-1.1-.87-.7 0-.92.83-.92 1.4a1.2 1.2 0 00.75 1.1c-.34.03-.7.27-.7.67 0 .17.11.7.81.7zm.44-1.4c-.82 0-1.1-.62-1.1-1 0-.42.3-.78.73-.78.48 0 1.2.37 1.2 1.8z"/>
</symbol>
<symbol id="bk" class="B">
<path d="m1.9 4.5c1.1 0 2-.84 2-1.8 0-.67-.41-1-.56-1.2h2.8l-.09-1.2h-.27c0 .61-.06.69-.48.69h-5.2v.2l.53.31c-.19.14-.62.5-.62 1.1 0 1 .84 1.9 2 1.9zm.02-.72c-.31 0-.84-.02-1.2-.27-.27-.18-.56-.51-.56-.96 0-.39.2-.7.53-.91.17-.12.2-.12.36-.12h1.8c.16 0 .17 0 .31.09.48.33.55.81.55 1 0 .39-.22.7-.55.91-.36.23-.84.25-1.2.25z"/>
</symbol>
<symbol id="bl" class="B">
<path d="m1.1 3.1c.45 0 .72-.27.81-.36.28-.28.34-.62.42-.98.09-.48.2-1.1.7-1.1.31 0 .66.22.66.97 0 .95-.78.98-1 1-.08.02-.08.11-.08.11 0 .11.05.11.22.11h.86c.16 0 .22 0 .22-.09 0-.05 0-.06-.11-.17l-.14-.14c.25-.33.25-.69.25-.81 0-1.1-.57-1.4-1.1-1.4a.9.9 0 00-.73.38c-.23.28-.28.52-.41 1.1-.03.19-.17.91-.8.91-.44 0-.78-.31-.78-.98 0-.73.5-1 1.2-1.2.11-.02.14-.03.14-.12 0-.11-.06-.11-.22-.11h-1.1c-.14 0-.2 0-.2.09 0 .05 0 .06.17.22.02.02.03.02.2.17-.37.39-.37.77-.37.95 0 1 .58 1.4 1.2 1.4z"/>
</symbol>
<symbol id="ao" class="B">
<path d="m1.1 2.9h.48v-.22h-.47c-.64 0-.97-.27-.97-.58 0-.58.78-.58.92-.58h2.4v1.2h.27v-1.2h1.6v-.22c-.7-.02-1.6-.27-1.7-1.1h-.19v.73h-2.4c-1.1.01-1.2.8-1.2 1.1 0 .61.61.86 1.2.86z"/>
</symbol>
<symbol id="bm" class="B">
<path d="m1 3.6c.08 0 .08-.08.08-.11 0-.08-.03-.09-.08-.11-.81-.25-.91-.81-.91-1.1 0-.47.38-1.2 1.8-1.2 1.4 0 1.8.7 1.8 1.2 0 .08-.02.63-.33.94-.02-.36-.28-.41-.39-.41-.22 0-.39.14-.39.39 0 .22.14.39.41.39.58 0 .92-.66.92-1.3 0-1.1-.94-1.9-2-1.9-1.1 0-2 .86-2 1.9a1.4 1.4 0 001.1 1.4z"/>
</symbol>
<symbol id="ay" class="B">
<path d="m0 2.1h.27c0-.58.05-.61.38-.61h3.2l-.1-1.2h-.27c0 .56-.05.64-.47.64h-2.3c-.39 0-.39-.09-.39-.67h-.27l.03.95zm5.2-.48c.23 0 .45-.2.45-.45 0-.3-.23-.47-.45-.47-.23 0-.45.2-.45.45 0 .3.23.47.45.47z"/>
</symbol>
<symbol id="bn" class="B">
<path d="m0 4.6h.27c0-.45 0-.67.27-.67h1.6c.75 0 1 0 1.3-.27.14-.12.31-.41.31-.91 0-.64-.36-1-.91-1.3h.91l-.1-1.2h-.27c0 .59-.06.67-.48.67h-2.3c-.39 0-.39-.09-.39-.67h-.27l.03.97-.03.97h.27c0-.58 0-.67.39-.67h1.6c.89 0 1.4.61 1.4 1.2 0 .53-.47.64-.95.64h-2c-.39 0-.39-.11-.39-.69h-.27l.03.98z"/>
</symbol>
<symbol id="bo" class="B">
<path d="m0 4.6h.27c0-.45 0-.67.27-.67h1.6c.75 0 1 0 1.3-.27.14-.12.31-.41.31-.91 0-.73-.52-1.1-.83-1.2v-.02h3l-.09-1.2h-.27c0 .59-.06.67-.48.67h-4.5c-.39 0-.39-.09-.39-.67h-.27l.03.97-.03.97h.27c0-.58 0-.67.39-.67h1.6c.89 0 1.4.61 1.4 1.2 0 .53-.47.64-.95.64h-2c-.39 0-.39-.11-.39-.69h-.27l.03.98z"/>
</symbol>
<symbol id="ce" class="B">
<path d="m3.5 4.2c.16 0 .44-.09.44-.44 0-.17-.06-.55-.41-.92.28-.36.3-.72.3-.91 0-.81-.59-1.4-1.2-1.4-.39 0-.72.19-.89.41-.14-.11-.42-.26-.72-.26-.26 0-.59.11-.76.37-.16-.51-.53-.79-.88-.79-.62 0-1.1.86-1.1 1.9 0 1 .44 1.9 1.1 1.9.31 0 .75-.11.98-.55.25-.47.25-.97.25-1.5v-.64c.05-.28.31-.45.59-.45.03 0 .22 0 .41.14-.25.34-.28.69-.28.86 0 .8.61 1.4 1.3 1.4.33 0 .64-.12.84-.34.3.31.33.61.33.77v.09c-.03-.09-.14-.14-.23-.14-.16 0-.25.11-.25.25 0 .09.06.25.25.25zm-.92-1.5c-.23 0-.52-.02-.73-.14-.09-.06-.34-.27-.34-.61 0-.75.86-.75 1.1-.75.23 0 .52 0 .73.14.09.06.34.27.34.61 0 .75-.87.75-1.1.75zm-3.2.95c-.47 0-.89-.62-.89-1.5 0-.87.44-1.5.89-1.5.41 0 .72.33.75.72v.5c0 .75 0 1.7-.75 1.7z"/>
</symbol>
<symbol id="v" class="B">
<path d="m1.8 0v-.22c-.45 0-.53 0-.53-.33v-4.4l-1.1.08v.22c.48 0 .55.05.55.39v3.7c0 .33-.08.33-.55.33v.21l.8-.02.8.02z"/>
</symbol>
<symbol id="y" class="B">
<path d="m3.4-1.5c0-.92-.73-1.7-1.6-1.7-.91.01-1.6.76-1.6 1.7a1.6 1.6 0 001.6 1.6c.91 0 1.6-.72 1.6-1.6zm-.61-.06c0 .27 0 .67-.19.98-.19.33-.52.47-.81.47-.36 0-.66-.17-.83-.45-.17-.3-.19-.67-.19-1 0-.27 0-.66.19-.95.2-.36.56-.47.81-.47.41 0 .7.22.84.47.16.3.17.66.17.95z"/>
</symbol>
<symbol id="ap" class="B">
<path d="m3-.84c0-.08-.08-.08-.11-.08-.06 0-.06 0-.11.13-.17.48-.56.67-.92.67-.45-.01-1-.36-1-1.4 0-1.1.58-1.4 1-1.4a1.4 1.4 0 01.73.2c-.14.02-.28.13-.28.33 0 .19.14.33.33.33.17 0 .33-.12.33-.34 0-.44-.5-.7-1.1-.7-.91 0-1.6.75-1.6 1.6a1.6 1.6 0 001.6 1.6 1.2 1.2 0 001.2-.92z"/>
</symbol>
<symbol id="p" class="B">
<path d="m3.5-.62v-.41h-.2v.39c0 .08 0 .44-.25.44-.27 0-.27-.34-.27-.45v-1.2c0-.41 0-.64-.31-.94-.27-.23-.61-.33-.95-.33-.61 0-1.1.3-1.1.75 0 .22.14.34.33.34s.33-.16.33-.33c0-.31-.33-.34-.33-.34.2-.19.53-.25.75-.25.36 0 .77.27.77.89v.23a3.4 3.4 0 00-1.4.28c-.52.25-.67.61-.67.91 0 .58.69.77 1.2.77.59 0 .86-.39.97-.59.03.3.23.56.55.56.17 0 .63-.11.63-.67zm-1.2-.38c0 .69-.53.91-.84.91-.35 0-.66-.25-.66-.6 0-.47.41-.97 1.5-1z"/>
</symbol>
<symbol id="az" class="B">
<path d="m3-.84c0-.05-.03-.09-.11-.09-.06 0-.08.05-.09.08-.23.72-.87.73-.98.73-.33 0-.62-.19-.78-.42-.24-.37-.26-.79-.26-1.1h2c.16 0 .19 0 .19-.14 0-.73-.41-1.4-1.3-1.4-.85 0-1.5.73-1.5 1.6 0 .93.75 1.6 1.6 1.6.87 0 1.2-.77 1.2-.92zm-.48-.95h-1.7c.06-1.1.7-1.2.89-1.2.39 0 .83.3.83 1.2z"/>
</symbol>
<symbol id="ba" class="B">
<path d="m3.8 0v-.22c-.28 0-.5 0-.66-.2l-.94-1.2c-.05-.06-.05-.08-.05-.08l.61-.75c.22-.23.47-.41.91-.42v-.22c-.22.03-.41.03-.61.03-.27 0-.39 0-.69-.03v.22c.11.02.2.08.2.22 0 .11-.06.19-.09.23l-.45.56-.56-.7c-.05-.06-.06-.08-.06-.12 0-.09.08-.17.25-.19v-.22l-.78.03s-.42 0-.69-.03v.22c.48 0 .5.02.83.44l.73.92-.7.83c-.34.42-.75.44-.91.44v.21l.61-.02.69.02v-.22c-.19-.02-.2-.14-.2-.22 0-.02 0-.11.11-.25l.53-.64.56.72c.13.16.13.17.13.22 0 .08-.06.16-.23.17v.22l.77-.02.7.02z"/>
</symbol>
<symbol id="aq" class="B">
<path d="m3.8-1.5c0-.89-.69-1.6-1.5-1.6-.37 0-.73.16-1 .45v-.45l-1 .08v.22c.5 0 .55.05.55.36v3.3c0 .33-.08.33-.55.33v.22l.8-.02.81.02v-.22c-.47 0-.55 0-.55-.33v-1.2c.19.19.42.42.89.42.84 0 1.6-.69 1.6-1.6zm-.61 0c0 .81-.48 1.4-1 1.4-.33 0-.59-.19-.77-.44-.09-.14-.09-.16-.09-.3v-1.6c.25-.41.64-.55.94-.55.55 0 .97.64.97 1.4z"/>
</symbol>
<symbol id="w" class="B">
<path d="m3.9 0v-.22c-.36 0-.53 0-.55-.22v-1.4c0-.59 0-.8-.19-1-.17-.2-.44-.3-.8-.3-.66 0-.95.5-1.1.69v-.69l-1 .08v.22c.48 0 .55.06.55.41v1.9c0 .33-.08.33-.55.33v.22l.81-.02.8.02v-.22c-.47 0-.55 0-.55-.33v-1.3c0-.75.53-1.1.98-1.1.42 0 .52.34.52.77v1.6c0 .33-.08.33-.55.33v.22l.81-.02.8.02z"/>
</symbol>
<symbol id="ag" class="B">
<path d="m2.4-.87v-.41h-.19v.38c0 .53-.23.78-.48.78-.47 0-.47-.62-.47-.75v-2h1v-.22h-1v-1.3h-.2c0 .59-.25 1.3-.94 1.3v.17h.61v2c0 .8.58.95.95.95.47 0 .72-.45.72-.95z"/>
</symbol>
<symbol id="ad" class="B">
<path d="m1.8 0v-.22c-.47 0-.48-.03-.48-.31v-2.6l-1 .08v.22c.45 0 .52.05.52.39v1.9c0 .33-.08.33-.55.33v.21l.78-.02.77.02zm-.41-4.3c0-.2-.16-.37-.37-.37s-.39.17-.39.38c0 .22.17.39.39.39s.38-.17.38-.39z"/>
</symbol>
<symbol id="ar" class="B">
<path d="m2.6-.91c0-.33-.14-.52-.3-.67-.25-.23-.5-.28-1-.39-.19-.03-.7-.12-.7-.53 0-.22.16-.52.8-.52.77 0 .83.58.83.77.02.08.02.13.11.13s.09-.05.09-.19v-.69c0-.11 0-.17-.08-.17-.05 0-.05 0-.14.08-.02.02-.08.08-.12.11-.22-.16-.44-.19-.69-.19-.94 0-1.2.52-1.2.88a.8.8 0 00.27.56c.25.22.52.27.88.34.36.06.48.08.64.2.06.06.25.19.25.47 0 .63-.72.63-.81.63-.73 0-.91-.61-1-.98-.03-.09-.05-.13-.13-.13-.11 0-.11.06-.11.19v.91c0 .13 0 .19.09.19.05 0 .05 0 .17-.14.03-.05.11-.14.14-.17.3.3.63.31.81.31.86 0 1.2-.52 1.2-.98z"/>
</symbol>
<symbol id="cf" class="B">
<path d="m3.6-2.9c0-.14-.11-.36-.39-.36-.2 0-.53.08-.77.34-.2-.16-.47-.27-.77-.27-.69 0-1.2.48-1.2 1 0 .36.2.63.33.72-.02.02-.22.27-.22.59 0 .23.11.5.3.63-.36.11-.64.38-.64.71 0 .52.7.92 1.6.92.88 0 1.6-.39 1.6-.92 0-.3-.14-.61-.41-.78-.39-.25-.8-.25-1.5-.25-.14 0-.36 0-.42-.02-.21-.05-.35-.23-.35-.45 0-.12.05-.22.11-.31.17.11.39.22.72.22.67 0 1.2-.48 1.2-1 0-.34-.2-.59-.3-.69.28-.25.63-.25.7-.25-.03.02-.09.05-.09.17 0 .08.05.22.22.22.09 0 .22-.06.22-.22zm-1.3.77c0 .17 0 .86-.64.86-.62 0-.62-.7-.62-.86 0-.19.02-.44.13-.61.11-.14.3-.23.5-.23.64 0 .64.69.64.84zm.78 2.6c0 .41-.55.72-1.2.72-.7 0-1.2-.33-1.2-.72 0-.11.06-.58.67-.58h.66c.22 0 1.1 0 1.1.58z"/>
</symbol>
<symbol id="cg" class="B">
<path d="m3.8-1.5c0-.89-.7-1.6-1.6-1.6-.48 0-.81.25-.98.44v-2.2l-1 .08v.22c.47 0 .55.05.55.39v4.2h.19l.27-.44c.22.31.58.52.95.52.84 0 1.6-.69 1.6-1.6zm-.61-.02c0 .34-.03.72-.22 1-.16.23-.45.45-.83.45-.31 0-.59-.17-.75-.44-.11-.16-.11-.16-.11-.3v-1.4c0-.12 0-.14.08-.25.25-.33.59-.44.86-.44.31 0 .59.17.78.47a2 2 0 01.19.94z"/>
</symbol>
<symbol id="ch" class="B">
<path d="m2-1.3v-.44h-1.9v.44z"/>
</symbol>
<symbol id="ci" class="B">
<path d="m3.9 0v-.22c-.36 0-.53 0-.55-.22v-1.4c0-.59 0-.8-.19-1-.17-.2-.44-.3-.8-.3-.47 0-.81.25-1 .66h-.01v-2.4l-1 .08v.22c.48 0 .55.05.55.39v3.7c0 .33-.08.33-.55.33v.22l.81-.02.8.02v-.22c-.47 0-.55 0-.55-.33v-1.3c0-.75.53-1.1.98-1.1.42 0 .52.34.52.77v1.6c0 .33-.08.33-.55.33v.22l.81-.02.8.02z"/>
</symbol>
<symbol id="cj" class="B">
<path d="m2.6-2.7c0-.22-.2-.44-.53-.44-.42 0-.72.3-.87.75h-.02v-.75l-1 .08v.22c.47 0 .55.06.55.41v1.9c0 .33-.08.33-.55.33v.21l.83-.02.89.02v-.22h-.14c-.52 0-.53-.08-.53-.34v-1.1c0-.3.08-1.3.89-1.3-.02.02-.14.09-.14.27 0 .19.16.31.31.31s.31-.11.31-.33z"/>
</symbol>
<symbol id="ah" class="B">
<path d="m7.5-.23c0-.05-.05-.05-.08-.05-.08 0-.2.05-.22.06l-.06.03c-.2 0-.2-.36-.2-.73 0-.52.16-2 .41-3.2.03-.12.03-.14.03-.17 0-.02 0-.09-.05-.09s-.05.02-.12.09l-.16.19-1.2 1.4-1.9 1.9c-.27-.48-.39-.87-.56-1.5l-.49-2c-.02-.08-.02-.09-.09-.09-.02 0-.39.05-.42.34a10 10 0 01-.64 2.5c-.5 1.3-.66 1.3-.78 1.3a.8.8 0 01-.48-.17c-.05-.05-.07-.05-.07-.05-.09 0-.23.3-.23.48 0 .06 0 .14.22.25.2.09.36.09.36.09.39 0 .77-.84.84-1 .33-.75.73-1.8.92-2.8.3 1.3.56 2.2.91 2.9.06.13.14.23.22.36.02.02.03.05.08.05.11 0 1.1-.98 1.1-1l.8-.89 1-1.2c-.23 1.4-.3 2.3-.3 2.6 0 .52 0 .81.34.81.27 0 .78-.27.78-.41z"/>
</symbol>
<symbol id="ck" class="B">
<path d="m5.4-.42c0-.03-.03-.05-.06-.05-.06 0-.17.03-.27.09-.12.06-.22.16-.23.2 0 .03-.02.05-.03.08-.11.03-.22.05-.34.05-.17.02-.3-.12-.28-.31.03-.44.11-.89.22-1.3.22-.86.48-1.7.83-2.6 0-.06-.02-.06-.06-.06-.06 0-.17.03-.27.08-.11.08-.2.16-.22.2l-.66 1.9h-1.8l.13-.45c.11-.45.17-.89.2-1.3.03-.25-.16-.41-.41-.41-.22 0-.44.02-.64.08a2.4 2.4 0 00-.95.53c-.17.16-.31.34-.42.55l-.02.03c0 .03.03.05.08.05a.6.6 0 00.27-.09c.09-.06.19-.12.22-.19.06-.14.16-.27.27-.37.09-.08.2-.12.3-.16.16-.05.33-.06.47-.06.19 0 .31.14.28.31a7.6 7.6 0 01-.2 1.3l-.05.2h-.27a.6.6 0 00-.27.09c-.12.08-.22.17-.22.23 0 .02.02.03.06.03h.56l-.64 2c-.02.05.02.06.06.06a.6.6 0 00.27-.09c.11-.06.2-.14.22-.2l.59-1.7h1.6c.06 0 .14-.02.22-.06l-.09.38c-.12.47-.19.92-.23 1.4-.02.27.17.42.44.41.17 0 .36-.02.53-.08.06 0 .11-.03.16-.05.25-.11.5-.25.61-.48l.05-.12z"/>
</symbol>
<symbol id="cl" class="B">
<path d="m2.6-2.7c0-.05-.02-.23-.25-.23-.09 0-.25.03-.41.08a2.3 2.3 0 01-.37.08c.02-.11.02-.25.08-.62.03-.16.08-.53.08-.73 0-.05 0-.28-.23-.28s-.23.22-.23.28a5.6 5.6 0 00.08.72c.08.41.08.5.08.64-.11-.02-.2-.03-.36-.08-.14-.05-.3-.08-.42-.08-.25 0-.25.23-.25.23 0 .05.02.23.25.23.09 0 .25-.02.41-.08l.38-.08c0 .11-.02.2-.06.44-.09.44-.09.48-.09.83a30 30 0 00.13 2.6c.02.09.02.14.11.14.05 0 .09-.02.09-.08a28 28 0 00.14-2.7c0-.31 0-.39-.08-.78-.06-.28-.06-.34-.08-.48.11.02.22.05.36.08.14.05.31.08.42.08.25 0 .25-.23.25-.23z"/>
</symbol>
<symbol id="q" class="B">
<path d="m5.2-2.8c0-.52-.23-.92-.72-1.2-.56-.3-1.2-.3-1.8-.3-.56 0-1 0-1.6.25-.84.38-.95.91-.95.94 0 .05.03.06.06.06.14 0 .45-.17.5-.33.08-.23.17-.52 1.1-.56-.11 1.6-.53 2.8-.86 3.6-.18.06-.39.23-.39.31 0 .05.03.05.14.05h.72c1.5 0 3.7-1.1 3.7-2.8zm-.56.28c0 1.4-1.3 2.2-2.8 2.2h-.39c.75-1.7.89-3.1.94-3.6h.2c.61 0 2 .16 2 1.4z"/>
</symbol>
<symbol id="bp" class="B">
<path d="m1.4-.02c0-.41-.16-.69-.44-.69-.22 0-.34.17-.34.34 0 .19.13.36.36.36.14 0 .25-.09.25-.09 0 .41-.09.77-.48 1.2-.03.02-.05.03-.05.06 0 .06.06.09.09.09.08 0 .61-.5.61-1.2z"/>
</symbol>
<path id="z" d="m24 166v-25h56v25z"/>
<path id="aa" d="m85 166v-25h56v25z"/>
</defs>
<g transform="translate(15 .3)" fill="#f8f8f8">
<path d="m24 85v-25h56v25zm0 27v-25h56v25zm0 27v-25h56v25z"/>
<use xlink:href="#z"/>
<use y="27" xlink:href="#z"/>
<use y="62.900002" xlink:href="#z"/>
<use y="98.800003" xlink:href="#z"/>
<use y="125.7" xlink:href="#z"/>
<use y="152.60001" xlink:href="#z"/>
<use y="179.5" xlink:href="#z"/>
<path d="m85 56v-25h56v25zm58 0v-25h56v25zm58 0v-25h56v25zm58 0v-25h56v25zm58 0v-25h56v25zm61 0v-25h56v25z"/>
</g>
<g class="C" transform="translate(15 .3)" stroke="#000" stroke-width=".32">
<path d="m85 20h347m-410 40v282m63-284h289m4.5 0h56m-350 144h289m4.5 0h56m-350 36h289m4.5 0h56m-352 108v-285m294 285v-285" fill="none"/>
<path d="m434 20a14 14 0 01-2.7-1.4v2.7a13 13 0 012.7-1.4zm-412 325a14 14 0 011.4-2.7h-2.7a13 13 0 011.4 2.7z"/>
</g>
<g transform="translate(15 .3)" fill-opacity=".06">
<path d="m85 85v-25h56v25z"/>
<path d="m85 85v-25h114v25zm117 0v-25h56v25zm177 0v-25h56v25zm-294 27v-25h56v25zm117 0v-25h114v25zm-58 27v-25h114v25z"/>
<path d="m143 139v-25h231v25zm236 0v-25h56v25z"/>
<use xlink:href="#aa"/>
<path d="m85 166v-25h173v25z"/>
<use y="27" xlink:href="#aa"/>
<use x="293.92001" y="27" xlink:href="#aa"/>
<use x="233.32001" y="62.900002" xlink:href="#aa"/>
<path d="m260 265v-25h56v25zm-175 27v-25h114v25z"/>
<use y="152.60001" xlink:href="#aa"/>
<path d="m260 318v-25h56v25z"/>
<use x="233.32001" y="152.60001" xlink:href="#aa"/>
<use x="293.92001" y="152.60001" xlink:href="#aa"/>
<path d="m85 345v-25h114v25z"/>
</g>
<g transform="translate(-67 -115)">
<g transform="translate(0 132)">
<use x="169.06" xlink:href="#i"/>
<use x="171.45" xlink:href="#a"/>
<use x="175.28999" xlink:href="#h"/>
<use x="178.7" xlink:href="#h"/>
<use x="184.98" xlink:href="#f"/>
<use x="187.38" xlink:href="#g"/>
<use x="192.17" xlink:href="#ai"/>
<use x="194.81" xlink:href="#e"/>
<use x="199.13" xlink:href="#c"/>
<use x="202.50999" xlink:href="#o"/>
<use x="209.7" xlink:href="#d"/>
<use x="214.02" xlink:href="#b"/>
<use x="217.38" xlink:href="#f"/>
<use x="219.78" xlink:href="#e"/>
<use x="224.09" xlink:href="#g"/>
<use x="443.28" xlink:href="#o"/>
<use x="450.47" xlink:href="#e"/>
<use x="454.79001" xlink:href="#c"/>
<use x="458.17001" xlink:href="#a"/>
<use x="464.89001" xlink:href="#f"/>
<use x="467.29001" xlink:href="#g"/>
<use x="472.09" xlink:href="#ai"/>
<use x="474.73001" xlink:href="#e"/>
<use x="479.04001" xlink:href="#c"/>
<use x="482.42999" xlink:href="#o"/>
<use x="489.62" xlink:href="#d"/>
<use x="493.94" xlink:href="#b"/>
<use x="497.29999" xlink:href="#f"/>
<use x="499.69" xlink:href="#e"/>
<use x="504.01001" xlink:href="#g"/>
</g>
<g transform="translate(95)">
<use y="200.52" xlink:href="#cc"/>
<use y="202.92" xlink:href="#ax"/>
<use y="206.99001" xlink:href="#cd"/>
<use y="212.99001" xlink:href="#bj"/>
<use y="216.83" xlink:href="#am"/>
<use y="223.09" xlink:href="#an"/>
<use y="227.41" xlink:href="#bk"/>
<use y="232.2" xlink:href="#bl"/>
<use y="235.61" xlink:href="#ao"/>
<use y="238.97" xlink:href="#am"/>
<use y="242.35001" xlink:href="#an"/>
<use y="246.67" xlink:href="#bm"/>
<use y="250.5" xlink:href="#ao"/>
<use y="253.86" xlink:href="#ay"/>
<use y="256.26001" xlink:href="#ax"/>
<use y="260.57999" xlink:href="#bn"/>
<use y="383.29999" xlink:href="#bo"/>
<use y="388.10001" xlink:href="#ay"/>
<use y="390.5" xlink:href="#ce"/>
<use y="394.81" xlink:href="#bo"/>
<use y="399.60999" xlink:href="#bj"/>
<use y="403.45001" xlink:href="#am"/>
<use y="409.70001" xlink:href="#an"/>
<use y="414.01999" xlink:href="#bk"/>
<use y="418.82001" xlink:href="#bl"/>
<use y="422.22" xlink:href="#ao"/>
<use y="425.57999" xlink:href="#am"/>
<use y="428.95999" xlink:href="#an"/>
<use y="433.28" xlink:href="#bm"/>
<use y="437.12" xlink:href="#ao"/>
<use y="440.47" xlink:href="#ay"/>
<use y="442.87" xlink:href="#ax"/>
<use y="447.19" xlink:href="#bn"/>
</g>
<g transform="translate(0 172)">
<use x="106.77" xlink:href="#v"/>
<use x="108.8" xlink:href="#y"/>
<use x="112.65" xlink:href="#ap"/>
<use x="115.89" xlink:href="#p"/>
<use x="119.54" xlink:href="#v"/>
<use x="123.99" xlink:href="#az"/>
<use x="127.23" xlink:href="#ba"/>
<use x="131.08" xlink:href="#aq"/>
<use x="135.13" xlink:href="#v"/>
<use x="137.16" xlink:href="#p"/>
<use x="140.81" xlink:href="#w"/>
<use x="144.86" xlink:href="#p"/>
<use x="148.50999" xlink:href="#ag"/>
<use x="151.34" xlink:href="#ad"/>
<use x="153.37" xlink:href="#y"/>
<use x="157.00999" xlink:href="#w"/>
</g>
<g transform="translate(0 186)">
<use x="123.75" xlink:href="#f"/>
<use x="126.15" xlink:href="#g"/>
<use x="130.95" xlink:href="#x"/>
<use x="135.75" xlink:href="#m"/>
<use x="140.55" xlink:href="#b"/>
</g>
<g transform="translate(0 196)">
<use x="119.04" xlink:href="#ai"/>
<use x="121.68" xlink:href="#a"/>
<use x="125.52" xlink:href="#d"/>
<use x="129.83" xlink:href="#b"/>
<use x="133.19" xlink:href="#m"/>
<use x="137.99001" xlink:href="#c"/>
<use x="141.37" xlink:href="#a"/>
<use x="145.21001" xlink:href="#h"/>
</g>
<g transform="translate(0 212)">
<use x="113.39" xlink:href="#d"/>
<use x="117.71" xlink:href="#ab"/>
<use x="122.51" xlink:href="#bb"/>
<use x="126.82" xlink:href="#a"/>
<use x="130.66" xlink:href="#c"/>
<use x="134.03999" xlink:href="#h"/>
<use x="137.45" xlink:href="#d"/>
<use x="141.75999" xlink:href="#c"/>
<use x="145.14" xlink:href="#f"/>
<use x="147.53999" xlink:href="#d"/>
<use x="151.86" xlink:href="#i"/>
</g>
<g transform="translate(0 223)">
<use x="116.65" xlink:href="#a"/>
<use x="120.49" xlink:href="#aj"/>
<use x="125.05" xlink:href="#d"/>
<use x="129.36" xlink:href="#o"/>
<use x="136.56" xlink:href="#x"/>
<use x="141.36" xlink:href="#i"/>
<use x="143.75" xlink:href="#a"/>
<use x="147.59" xlink:href="#h"/>
</g>
<g transform="translate(0 239)">
<use x="121.08" xlink:href="#h"/>
<use x="124.48" xlink:href="#f"/>
<use x="126.88" xlink:href="#o"/>
<use x="134.08" xlink:href="#f"/>
<use x="136.47" xlink:href="#i"/>
<use x="138.87" xlink:href="#d"/>
<use x="143.19" xlink:href="#c"/>
</g>
<g transform="translate(0 250)">
<use x="116.65" xlink:href="#a"/>
<use x="120.49" xlink:href="#aj"/>
<use x="125.05" xlink:href="#d"/>
<use x="129.36" xlink:href="#o"/>
<use x="136.56" xlink:href="#x"/>
<use x="141.36" xlink:href="#i"/>
<use x="143.75" xlink:href="#a"/>
<use x="147.59" xlink:href="#h"/>
</g>
<g transform="translate(0 266)">
<use x="118.34" xlink:href="#n"/>
<use x="122.18" xlink:href="#e"/>
<use x="126.5" xlink:href="#m"/>
<use x="131.3" xlink:href="#g"/>
<use x="135.85001" xlink:href="#b"/>
<use x="139.21001" xlink:href="#a"/>
<use x="143.05" xlink:href="#c"/>
<use x="146.42999" xlink:href="#as"/>
</g>
<g transform="translate(0,277)">
<use x="119.29" xlink:href="#ai"/>
<use x="121.93" xlink:href="#d"/>
<use x="126.25" xlink:href="#n"/>
<use x="130.08" xlink:href="#b"/>
<use x="133.44" xlink:href="#m"/>
<use x="138.24001" xlink:href="#d"/>
<use x="142.56" xlink:href="#i"/>
<use x="144.95" xlink:href="#h"/>
</g>
<g transform="translate(0 293)">
<use x="120.14" xlink:href="#g"/>
<use x="124.94" xlink:href="#d"/>
<use x="129.25999" xlink:href="#b"/>
<use x="132.61" xlink:href="#m"/>
<use x="137.41" xlink:href="#c"/>
<use x="140.78999" xlink:href="#d"/>
<use x="145.11" xlink:href="#i"/>
</g>
<g transform="translate(0 304)">
<use x="117.28" xlink:href="#i"/>
<use x="119.68" xlink:href="#d"/>
<use x="123.99" xlink:href="#g"/>
<use x="128.78999" xlink:href="#ak"/>
<use x="133.11" xlink:href="#m"/>
<use x="137.89999" xlink:href="#d"/>
<use x="142.22" xlink:href="#ak"/>
<use x="146.53999" xlink:href="#a"/>
</g>
<g transform="translate(0 316)">
<use x="106.83" xlink:href="#ap"/>
<use x="110.07" xlink:href="#v"/>
<use x="112.1" xlink:href="#p"/>
<use x="115.75" xlink:href="#ar"/>
<use x="118.62" xlink:href="#ar"/>
<use x="123.93" xlink:href="#az"/>
<use x="127.18" xlink:href="#ba"/>
<use x="131.03" xlink:href="#aq"/>
<use x="135.08" xlink:href="#v"/>
<use x="137.10001" xlink:href="#p"/>
<use x="140.75" xlink:href="#w"/>
<use x="144.8" xlink:href="#p"/>
<use x="148.45" xlink:href="#ag"/>
<use x="151.28" xlink:href="#ad"/>
<use x="153.3" xlink:href="#y"/>
<use x="156.95" xlink:href="#w"/>
</g>
<g transform="translate(0 334)">
<use x="117.73" xlink:href="#n"/>
<use x="121.57" xlink:href="#e"/>
<use x="125.89" xlink:href="#g"/>
<use x="130.67999" xlink:href="#n"/>
<use x="134.52" xlink:href="#a"/>
<use x="138.36" xlink:href="#x"/>
<use x="143.16" xlink:href="#b"/>
<use x="146.50999" xlink:href="#h"/>
</g>
<g transform="translate(0 352)">
<use x="104.64" xlink:href="#cf"/>
<use x="108.29" xlink:href="#v"/>
<use x="110.32" xlink:href="#y"/>
<use x="113.96" xlink:href="#cg"/>
<use x="118.01" xlink:href="#p"/>
<use x="121.66" xlink:href="#v"/>
<use x="126.12" xlink:href="#az"/>
<use x="129.36" xlink:href="#ba"/>
<use x="133.21001" xlink:href="#aq"/>
<use x="137.27" xlink:href="#v"/>
<use x="139.28999" xlink:href="#p"/>
<use x="142.94" xlink:href="#w"/>
<use x="146.99001" xlink:href="#p"/>
<use x="150.64" xlink:href="#ag"/>
<use x="153.47" xlink:href="#ad"/>
<use x="155.5" xlink:href="#y"/>
<use x="159.14" xlink:href="#w"/>
</g>
<g transform="translate(0 370)">
<use x="113.19" xlink:href="#bb"/>
<use x="117.5" xlink:href="#e"/>
<use x="122.06" xlink:href="#n"/>
<use x="125.9" xlink:href="#d"/>
<use x="130.22" xlink:href="#r"/>
<use x="135.00999" xlink:href="#m"/>
<use x="139.81" xlink:href="#i"/>
<use x="142.21001" xlink:href="#d"/>
<use x="146.52" xlink:href="#c"/>
<use x="149.91" xlink:href="#at"/>
</g>
<g transform="translate(0 397)">
<use x="116.89" xlink:href="#a"/>
<use x="120.73" xlink:href="#g"/>
<use x="125.53" xlink:href="#h"/>
<use x="128.92999" xlink:href="#a"/>
<use x="132.77" xlink:href="#o"/>
<use x="139.72" xlink:href="#r"/>
<use x="144.52" xlink:href="#i"/>
<use x="146.92" xlink:href="#a"/>
</g>
<g transform="translate(0 419)">
<use x="116.77" xlink:href="#i"/>
<use x="119.17" xlink:href="#f"/>
<use x="121.57" xlink:href="#g"/>
<use x="126.37" xlink:href="#ak"/>
<use x="130.67999" xlink:href="#m"/>
<use x="135.48" xlink:href="#f"/>
<use x="137.88" xlink:href="#h"/>
<use x="141.28" xlink:href="#b"/>
<use x="144.64" xlink:href="#f"/>
<use x="147.03999" xlink:href="#n"/>
</g>
<g transform="translate(0 430)">
<use x="111.87" xlink:href="#f"/>
<use x="114.27" xlink:href="#g"/>
<use x="119.06" xlink:href="#ai"/>
<use x="121.7" xlink:href="#e"/>
<use x="126.02" xlink:href="#c"/>
<use x="129.39999" xlink:href="#o"/>
<use x="136.60001" xlink:href="#d"/>
<use x="140.91" xlink:href="#b"/>
<use x="144.27" xlink:href="#f"/>
<use x="146.67" xlink:href="#e"/>
<use x="150.99001" xlink:href="#g"/>
</g>
<g transform="translate(0 451)">
<use x="124.92" xlink:href="#c"/>
<use x="128.3" xlink:href="#m"/>
<use x="133.09" xlink:href="#i"/>
<use x="135.49001" xlink:href="#a"/>
<use x="139.33" xlink:href="#h"/>
</g>
<g transform="translate(0 143)">
<use x="169.58" xlink:href="#aq"/>
<use x="173.84" xlink:href="#y"/>
<use x="177.49001" xlink:href="#ar"/>
<use x="180.37" xlink:href="#ag"/>
<use x="183.2" xlink:href="#ch"/>
<use x="185.63" xlink:href="#ci"/>
<use x="189.69" xlink:href="#y"/>
<use x="193.53" xlink:href="#ap"/>
</g>
<g transform="translate(0 162)">
<use x="176.28999" xlink:href="#r"/>
<use x="181.09" xlink:href="#i"/>
<use x="183.48" xlink:href="#d"/>
<use x="187.8" xlink:href="#n"/>
<use x="191.39999" xlink:href="#bc"/>
<use x="195.95" xlink:href="#as"/>
<use x="198.83" xlink:href="#r"/>
<use x="203.87" xlink:href="#e"/>
<use x="207.94" xlink:href="#aj"/>
<use x="239.03" xlink:href="#ab"/>
<use x="243.83" xlink:href="#d"/>
<use x="248.14" xlink:href="#b"/>
<use x="251.5" xlink:href="#d"/>
<use x="255.82001" xlink:href="#h"/>
<use x="259.22" xlink:href="#a"/>
<use x="263.06" xlink:href="#b"/>
<use x="295.57001" xlink:href="#ak"/>
<use x="299.89001" xlink:href="#c"/>
<use x="303.26999" xlink:href="#d"/>
<use x="307.59" xlink:href="#ab"/>
<use x="312.38" xlink:href="#f"/>
<use x="314.78" xlink:href="#a"/>
<use x="318.62" xlink:href="#g"/>
<use x="323.17001" xlink:href="#b"/>
<use x="347.29001" xlink:href="#a"/>
<use x="351.13" xlink:href="#o"/>
<use x="358.07999" xlink:href="#r"/>
<use x="363.12" xlink:href="#a"/>
<use x="366.95999" xlink:href="#ab"/>
<use x="371.75" xlink:href="#ab"/>
<use x="376.54999" xlink:href="#f"/>
<use x="378.95001" xlink:href="#g"/>
<use x="383.75" xlink:href="#ak"/>
<use x="388.06" xlink:href="#h"/>
<use x="409.12" xlink:href="#bq"/>
<use x="415.35999" xlink:href="#bd"/>
<use x="420.14999" xlink:href="#f"/>
<use x="422.54999" xlink:href="#b"/>
<use x="425.91" xlink:href="#a"/>
<use x="429.75" xlink:href="#as"/>
<use x="432.62" xlink:href="#r"/>
<use x="437.66" xlink:href="#e"/>
<use x="441.73001" xlink:href="#aj"/>
</g>
<g transform="translate(0 143)">
<use x="463.95001" xlink:href="#w"/>
<use x="461.92001" xlink:href="#ad"/>
<use x="467.79999" xlink:href="#ag"/>
<use x="470.63" xlink:href="#cj"/>
<use x="473.48001" xlink:href="#ad"/>
<use x="475.51001" xlink:href="#w"/>
<use x="479.56" xlink:href="#ar"/>
<use x="482.44" xlink:href="#ad"/>
<use x="484.47" xlink:href="#ap"/>
</g>
<g transform="translate(0 162)">
<use x="461.87" xlink:href="#o"/>
<use x="469.07001" xlink:href="#e"/>
<use x="473.63" xlink:href="#ab"/>
<use x="478.42001" xlink:href="#a"/>
<use x="482.26001" xlink:href="#i"/>
<use x="487.54001" xlink:href="#h"/>
<use x="490.94" xlink:href="#x"/>
<use x="495.98001" xlink:href="#a"/>
<use x="499.81" xlink:href="#n"/>
<use x="503.64999" xlink:href="#f"/>
<use x="506.04001" xlink:href="#cm"/>
<use x="510.84" xlink:href="#n"/>
</g>
<g transform="translate(0 191)">
<use x="172.82001" xlink:href="#ae"/>
<use x="177.62" xlink:href="#br"/>
<use x="184.09" xlink:href="#ac"/>
<use x="190.57001" xlink:href="#s"/>
<use x="199.32001" xlink:href="#j"/>
<use x="204.94" xlink:href="#al"/>
<use x="209.25999" xlink:href="#k"/>
<use x="211.64999" xlink:href="#au"/>
</g>
<g transform="translate(0 186)">
<use x="225" xlink:href="#be"/>
<use x="230.39999" xlink:href="#af"/>
<use x="233.50999" xlink:href="#bf"/>
<use x="241.42999" xlink:href="#t"/>
<use x="250.17999" xlink:href="#j"/>
<use x="255.8" xlink:href="#al"/>
<use x="260.12" xlink:href="#k"/>
<use x="262.51001" xlink:href="#bs"/>
<use x="266.82999" xlink:href="#av"/>
</g>
<g transform="translate(0 196)">
<use x="221.97" xlink:href="#ac"/>
<use x="228.44" xlink:href="#g"/>
<use x="233.24001" xlink:href="#n"/>
<use x="236.83" xlink:href="#bd"/>
<use x="241.63" xlink:href="#e"/>
<use x="245.95" xlink:href="#c"/>
<use x="249.33" xlink:href="#h"/>
<use x="255.62" xlink:href="#j"/>
<use x="261.23001" xlink:href="#al"/>
<use x="265.54999" xlink:href="#k"/>
<use x="267.95001" xlink:href="#bt"/>
</g>
<g transform="translate(0 186)">
<use x="283.38" xlink:href="#aw"/>
<use x="290.14999" xlink:href="#c"/>
<use x="293.54001" xlink:href="#d"/>
<use x="297.85001" xlink:href="#ab"/>
<use x="302.64999" xlink:href="#f"/>
<use x="305.04999" xlink:href="#a"/>
<use x="308.88" xlink:href="#g"/>
<use x="313.44" xlink:href="#b"/>
<use x="319.67999" xlink:href="#j"/>
<use x="325.29001" xlink:href="#al"/>
<use x="329.60999" xlink:href="#k"/>
<use x="332.01001" xlink:href="#l"/>
<use x="336.32001" xlink:href="#av"/>
</g>
<g transform="translate(0 196)">
<use x="296.34" xlink:href="#af"/>
<use x="299.45999" xlink:href="#aw"/>
<use x="309.10999" xlink:href="#j"/>
<use x="314.73001" xlink:href="#al"/>
<use x="319.04999" xlink:href="#k"/>
<use x="321.44" xlink:href="#u"/>
</g>
<g transform="translate(0 191)">
<use x="470.17001" xlink:href="#ac"/>
<use x="476.39999" xlink:href="#b"/>
<use x="479.76001" xlink:href="#b"/>
<use x="483.12" xlink:href="#a"/>
<use x="486.95999" xlink:href="#g"/>
<use x="491.51001" xlink:href="#b"/>
<use x="494.87" xlink:href="#f"/>
<use x="497.26999" xlink:href="#e"/>
<use x="501.57999" xlink:href="#g"/>
</g>
<g transform="translate(0 218)">
<use x="171.87" xlink:href="#ae"/>
<use x="176.67" xlink:href="#t"/>
<use x="182.55" xlink:href="#ac"/>
<use x="200.27" xlink:href="#j"/>
<use x="205.89" xlink:href="#bu"/>
<use x="210.21001" xlink:href="#k"/>
<use x="212.60001" xlink:href="#u"/>
</g>
<g transform="translate(0 218)">
<use x="315.76001" xlink:href="#br"/>
<use x="322.23999" xlink:href="#e"/>
<use x="326.54999" xlink:href="#b"/>
<use x="329.91" xlink:href="#bg"/>
<use x="335.54999" xlink:href="#i"/>
<use x="337.95001" xlink:href="#f"/>
<use x="340.34" xlink:href="#x"/>
<use x="348.01999" xlink:href="#j"/>
<use x="353.64001" xlink:href="#bu"/>
<use x="357.95001" xlink:href="#k"/>
<use x="360.35001" xlink:href="#l"/>
</g>
<use x="189.02" y="214.72" xlink:href="#ah"/>
<g transform="translate(0 245)">
<use x="232.41" xlink:href="#af"/>
<use x="235.53" xlink:href="#g"/>
<use x="240.33" xlink:href="#cn"/>
<use x="245.13" xlink:href="#m"/>
<use x="249.92" xlink:href="#a"/>
<use x="253.75999" xlink:href="#g"/>
<use x="258.56" xlink:href="#n"/>
<use x="262.39001" xlink:href="#a"/>
<use x="269.10999" xlink:href="#bg"/>
<use x="274.03" xlink:href="#m"/>
<use x="278.82001" xlink:href="#g"/>
<use x="283.62" xlink:href="#n"/>
<use x="287.45999" xlink:href="#b"/>
<use x="290.82001" xlink:href="#f"/>
<use x="293.20999" xlink:href="#e"/>
<use x="297.53" xlink:href="#g"/>
<use x="302.32999" xlink:href="#h"/>
<use x="314.70999" xlink:href="#j"/>
<use x="320.32999" xlink:href="#bv"/>
<use x="324.64999" xlink:href="#k"/>
<use x="327.04999" xlink:href="#l"/>
</g>
<g transform="translate(0 245)">
<use x="339.26001" xlink:href="#bh"/>
<use x="345.62" xlink:href="#a"/>
<use x="349.45001" xlink:href="#x"/>
<use x="354.25" xlink:href="#c"/>
<use x="357.63" xlink:href="#a"/>
<use x="361.47" xlink:href="#h"/>
<use x="364.88" xlink:href="#a"/>
<use x="368.70999" xlink:href="#g"/>
<use x="373.26999" xlink:href="#b"/>
<use x="376.63" xlink:href="#a"/>
<use x="380.45999" xlink:href="#c"/>
<use x="386.72" xlink:href="#s"/>
<use x="392.35999" xlink:href="#e"/>
<use x="396.67999" xlink:href="#f"/>
<use x="399.07999" xlink:href="#g"/>
<use x="403.63" xlink:href="#b"/>
<use x="406.98999" xlink:href="#a"/>
<use x="410.82999" xlink:href="#c"/>
<use x="414.20999" xlink:href="#h"/>
<use x="423.85999" xlink:href="#j"/>
<use x="429.48001" xlink:href="#bv"/>
<use x="433.79999" xlink:href="#k"/>
<use x="436.20001" xlink:href="#u"/>
</g>
<use x="305.73001" y="241.64" xlink:href="#ck"/>
<use x="417.60999" y="241.67999" xlink:href="#cl"/>
<g transform="translate(0 239)">
<use x="469.38" xlink:href="#s"/>
<use x="475.26001" xlink:href="#c"/>
<use x="478.64001" xlink:href="#e"/>
<use x="482.95001" xlink:href="#b"/>
<use x="486.31" xlink:href="#e"/>
<use x="490.63" xlink:href="#b"/>
<use x="493.73999" xlink:href="#at"/>
<use x="498.29999" xlink:href="#x"/>
<use x="503.34" xlink:href="#a"/>
</g>
<g transform="translate(0 250)">
<use x="470.73001" xlink:href="#bi"/>
<use x="477.20999" xlink:href="#a"/>
<use x="481.04999" xlink:href="#b"/>
<use x="484.16" xlink:href="#bq"/>
<use x="490.16" xlink:href="#e"/>
<use x="494.47" xlink:href="#c"/>
<use x="497.85999" xlink:href="#bc"/>
<use x="502.41" xlink:href="#h"/>
</g>
<g transform="translate(0 266)">
<use x="169.39" xlink:href="#s"/>
<use x="175.02" xlink:href="#e"/>
<use x="179.34" xlink:href="#i"/>
<use x="181.74001" xlink:href="#at"/>
<use x="186.28999" xlink:href="#bw"/>
<use x="188.92999" xlink:href="#m"/>
<use x="193.73" xlink:href="#f"/>
<use x="196.13" xlink:href="#n"/>
<use x="199.97" xlink:href="#a"/>
</g>
<g transform="translate(0 263)">
<use x="203.8" xlink:href="#ah"/>
<use x="211.78" xlink:href="#bp"/>
<use x="213.64" xlink:href="#q"/>
</g>
<g transform="translate(0 277)">
<use x="186.07001" xlink:href="#j"/>
<use x="191.69" xlink:href="#bx"/>
<use x="196.00999" xlink:href="#k"/>
<use x="198.41" xlink:href="#l"/>
</g>
<g transform="translate(0 272)">
<use x="227.56" xlink:href="#bf"/>
<use x="235.48" xlink:href="#f"/>
<use x="237.87" xlink:href="#by"/>
<use x="244.11" xlink:href="#t"/>
<use x="261.23001" xlink:href="#j"/>
<use x="266.85001" xlink:href="#bx"/>
<use x="271.17001" xlink:href="#k"/>
<use x="273.57001" xlink:href="#u"/>
</g>
<use x="249.99001" y="268.56" xlink:href="#ah"/>
<g transform="translate(0 293)">
<use x="174.03" xlink:href="#by"/>
<use x="180.27" xlink:href="#ac"/>
<use x="186.5" xlink:href="#aw"/>
<use x="193.28" xlink:href="#t"/>
</g>
<g transform="translate(0 290)">
<use x="199.16" xlink:href="#ah"/>
<use x="207.13" xlink:href="#bp"/>
<use x="208.99001" xlink:href="#q"/>
</g>
<g transform="translate(0,304)">
<use x="183.91" xlink:href="#j"/>
<use x="189.53" xlink:href="#l"/>
<use x="193.85001" xlink:href="#bz"/>
<use x="198.17" xlink:href="#k"/>
<use x="200.57001" xlink:href="#l"/>
</g>
<g transform="translate(0 299)">
<use x="460.29999" xlink:href="#aw"/>
<use x="467.07999" xlink:href="#t"/>
<use x="472.95001" xlink:href="#bg"/>
</g>
<g transform="translate(0 296)">
<use x="478.59" xlink:href="#q"/>
<use x="510.48999" xlink:href="#q"/>
</g>
<g transform="translate(0 299)">
<use x="484.35001" xlink:href="#av"/>
<use x="489.62" xlink:href="#bi"/>
<use x="496.10001" xlink:href="#af"/>
<use x="499.22" xlink:href="#be"/>
<use x="504.60999" xlink:href="#t"/>
</g>
<g transform="translate(0 334)">
<use x="405.17001" xlink:href="#bi"/>
<use x="411.64001" xlink:href="#af"/>
<use x="414.76001" xlink:href="#t"/>
<use x="429.28" xlink:href="#j"/>
<use x="434.89999" xlink:href="#l"/>
<use x="439.22" xlink:href="#l"/>
<use x="443.53" xlink:href="#k"/>
<use x="445.92999" xlink:href="#l"/>
</g>
<use x="420.64001" y="331.38" xlink:href="#q"/>
<g transform="translate(0,365)">
<use x="342.51999" xlink:href="#s"/>
<use x="348.39001" xlink:href="#c"/>
<use x="351.76999" xlink:href="#e"/>
<use x="356.32999" xlink:href="#bw"/>
<use x="358.97" xlink:href="#a"/>
<use x="362.81" xlink:href="#n"/>
<use x="366.64999" xlink:href="#b"/>
<use x="372.88" xlink:href="#j"/>
<use x="378.5" xlink:href="#l"/>
<use x="382.81" xlink:href="#u"/>
<use x="387.13" xlink:href="#k"/>
<use x="389.53" xlink:href="#l"/>
<use x="393.85001" xlink:href="#av"/>
</g>
<g transform="translate(0 376)">
<use x="344.69" xlink:href="#bh"/>
<use x="351.04001" xlink:href="#e"/>
<use x="355.35999" xlink:href="#b"/>
<use x="358.72" xlink:href="#d"/>
<use x="363.03" xlink:href="#b"/>
<use x="366.39001" xlink:href="#a"/>
<use x="373.10001" xlink:href="#j"/>
<use x="378.72" xlink:href="#l"/>
<use x="383.04001" xlink:href="#u"/>
<use x="387.35999" xlink:href="#k"/>
<use x="389.76001" xlink:href="#u"/>
</g>
<g transform="translate(0 397)">
<use x="193.71001" xlink:href="#ae"/>
<use x="198.50999" xlink:href="#s"/>
<use x="204.38" xlink:href="#as"/>
<use x="207.25999" xlink:href="#be"/>
<use x="212.66" xlink:href="#af"/>
<use x="215.77" xlink:href="#bf"/>
<use x="223.69" xlink:href="#t"/>
<use x="232.45" xlink:href="#j"/>
<use x="238.06" xlink:href="#l"/>
<use x="242.38" xlink:href="#bs"/>
<use x="246.69" xlink:href="#k"/>
<use x="249.09" xlink:href="#l"/>
</g>
<g transform="translate(0 419)">
<use x="174.3" xlink:href="#ca"/>
<use x="180.41" xlink:href="#a"/>
<use x="184.25" xlink:href="#bd"/>
<use x="189.05" xlink:href="#d"/>
<use x="193.12" xlink:href="#bb"/>
<use x="197.67999" xlink:href="#f"/>
<use x="200.08" xlink:href="#e"/>
<use x="204.39999" xlink:href="#c"/>
<use x="207.78" xlink:href="#d"/>
<use x="212.09" xlink:href="#i"/>
<use x="350.17001" xlink:href="#ae"/>
<use x="354.97" xlink:href="#b"/>
<use x="358.32001" xlink:href="#c"/>
<use x="361.70999" xlink:href="#m"/>
<use x="366.5" xlink:href="#n"/>
<use x="370.34" xlink:href="#b"/>
<use x="373.70001" xlink:href="#m"/>
<use x="378.48999" xlink:href="#c"/>
<use x="381.88" xlink:href="#d"/>
<use x="386.19" xlink:href="#i"/>
<use x="408.5" xlink:href="#ae"/>
<use x="413.29001" xlink:href="#b"/>
<use x="416.64999" xlink:href="#c"/>
<use x="420.03" xlink:href="#m"/>
<use x="424.82999" xlink:href="#n"/>
<use x="428.67001" xlink:href="#b"/>
<use x="432.01999" xlink:href="#m"/>
<use x="436.82001" xlink:href="#c"/>
<use x="440.20001" xlink:href="#d"/>
<use x="444.51999" xlink:href="#i"/>
</g>
<g transform="translate(0 430)">
<use x="166.67" xlink:href="#s"/>
<use x="172.53999" xlink:href="#c"/>
<use x="175.92" xlink:href="#e"/>
<use x="180.24001" xlink:href="#r"/>
<use x="185.28" xlink:href="#a"/>
<use x="189.12" xlink:href="#h"/>
<use x="201.16" xlink:href="#j"/>
<use x="206.78" xlink:href="#l"/>
<use x="211.10001" xlink:href="#au"/>
<use x="215.41" xlink:href="#k"/>
<use x="217.81" xlink:href="#l"/>
<use x="341.64999" xlink:href="#s"/>
<use x="347.51999" xlink:href="#c"/>
<use x="350.91" xlink:href="#e"/>
<use x="355.22" xlink:href="#r"/>
<use x="360.26001" xlink:href="#a"/>
<use x="364.10001" xlink:href="#h"/>
<use x="376.14001" xlink:href="#j"/>
<use x="381.76001" xlink:href="#l"/>
<use x="386.07999" xlink:href="#au"/>
<use x="390.39999" xlink:href="#k"/>
<use x="392.79001" xlink:href="#u"/>
<use x="399.98001" xlink:href="#s"/>
<use x="405.85001" xlink:href="#c"/>
<use x="409.23001" xlink:href="#e"/>
<use x="413.54999" xlink:href="#r"/>
<use x="418.59" xlink:href="#a"/>
<use x="422.42999" xlink:href="#h"/>
<use x="434.47" xlink:href="#j"/>
<use x="440.09" xlink:href="#l"/>
<use x="444.41" xlink:href="#au"/>
<use x="448.72" xlink:href="#k"/>
<use x="451.12" xlink:href="#u"/>
<use x="476.5" xlink:href="#cb"/>
<use x="482.01999" xlink:href="#d"/>
<use x="486.32999" xlink:href="#h"/>
<use x="489.73999" xlink:href="#bc"/>
</g>
<g transform="translate(0 426)">
<use x="192.52" xlink:href="#q"/>
<use x="367.5" xlink:href="#q"/>
<use x="425.82999" xlink:href="#q"/>
<use x="494.29001" xlink:href="#q"/>
</g>
<g transform="translate(0 419)">
<use x="470.76001" xlink:href="#ac"/>
<use x="476.98999" xlink:href="#m"/>
<use x="481.79001" xlink:href="#aj"/>
<use x="486.35001" xlink:href="#f"/>
<use x="488.73999" xlink:href="#i"/>
<use x="491.14001" xlink:href="#f"/>
<use x="493.54001" xlink:href="#d"/>
<use x="497.85999" xlink:href="#c"/>
<use x="501.23999" xlink:href="#at"/>
</g>
<use x="219.2" y="448.03" xlink:href="#ah"/>
<g transform="translate(0 451)">
<use x="195.7" xlink:href="#ae"/>
<use x="200.5" xlink:href="#t"/>
<use x="206.37" xlink:href="#ac"/>
<use x="212.85001" xlink:href="#bh"/>
<use x="230.45" xlink:href="#j"/>
<use x="236.07001" xlink:href="#l"/>
<use x="240.39" xlink:href="#bt"/>
<use x="244.71001" xlink:href="#k"/>
<use x="247.10001" xlink:href="#l"/>
</g>
</g>
</svg>
