<?xml version="1.0" encoding="UTF-8"?>
<svg version="1.2" viewBox="0 0 232 174" xmlns="http://www.w3.org/2000/svg" xmlns:xlink="http://www.w3.org/1999/xlink">
<defs>
<symbol id="af" overflow="visible">
<path d="m1.9-5.2c-.41 0-.73.14-1 .41-.44.44-.72 1.3-.72 2.2 0 .84.25 1.8.59 2.2.28.34.67.53 1.1.53.39 0 .72-.12.98-.41.44-.42.73-1.3.73-2.2 0-1.6-.69-2.7-1.7-2.7zm-.016.2c.62 0 .97.88.97 2.5 0 1.6-.33 2.4-.98 2.4-.64 0-.98-.83-.98-2.4 0-1.6.34-2.5 1-2.5z"/>
</symbol>
<symbol id="ag" overflow="visible">
<path d="m5.1-2.9c-.84 0-1.7.91-1.7 1.9 0 .61.36 1 .91 1 .34 0 .62-.12.89-.39.39-.42.64-1 .64-1.7 0-.52-.28-.83-.78-.83zm.062.25c.28 0 .53.28.53.62 0 .44-.19.97-.48 1.3-.23.31-.45.44-.73.44-.27 0-.45-.2-.45-.5 0-.41.2-1 .48-1.4.2-.31.42-.45.66-.45zm-.33-2.6h-.28c-.42.41-.72.53-1.2.53-.3 0-.48-.047-.66-.2-.2-.17-.3-.22-.53-.22-.88 0-1.7.92-1.7 1.9 0 .55.39.98.89.98.33 0 .66-.16.92-.42.39-.42.62-1 .62-1.6 0-.11-.016-.2-.047-.34.14.062.27.078.48.078.34 0 .53-.047.84-.22l-2.7 4.8h.38zm-2.1.59c.047.16.062.27.062.38 0 .88-.62 1.8-1.2 1.8-.27 0-.45-.19-.45-.47 0-.33.16-.86.36-1.2.22-.42.52-.69.75-.69.031 0 .047.016.094.047.11.11.2.14.42.2z"/>
</symbol>
<symbol id="az" overflow="visible">
<path d="m2.2-5.2-1.4.7v.11c.094-.031.17-.062.2-.078.14-.062.27-.094.34-.094.16 0 .22.12.22.38v3.5c0 .25-.062.44-.17.5-.12.078-.22.094-.55.11v.11h2.1v-.11c-.59-.016-.72-.094-.72-.47v-4.6z"/>
</symbol>
<symbol id="ax" overflow="visible">
<path d="m3.6-1.1-.094-.031c-.28.44-.38.5-.72.5h-1.8l1.3-1.4c.67-.72.97-1.3.97-1.9 0-.78-.62-1.4-1.4-1.4-.42 0-.81.17-1.1.48-.23.27-.36.52-.48 1.1l.16.031c.31-.75.58-1 1.1-1 .62 0 1.1.44 1.1 1.1 0 .59-.34 1.3-.98 2l-1.3 1.5v.094h3z"/>
</symbol>
<symbol id="ah" overflow="visible">
<path d="m2-4.8v3.9c0 .66-.094.73-.73.78v.14h2.3v-.14c-.64-.031-.75-.14-.75-.7v-4h.42c.88 0 1 .14 1.2.98h.19l-.047-1.3h-4.4l-.047 1.3h.19c.19-.83.38-.98 1.2-.98z"/>
</symbol>
<symbol id="al" overflow="visible">
<path d="m1.2-2.7c.33-.36.55-.48.86-.48.38 0 .58.28.58.83v1.5c0 .52-.078.62-.53.67v.11h1.6v-.11c-.42-.078-.47-.14-.47-.67v-1.5c0-.81-.31-1.2-.95-1.2-.45 0-.78.19-1.1.66v-2.4l-.047-.016c-.27.094-.45.16-.89.28l-.2.062v.12c.031-.016.047-.016.094-.016.33 0 .39.062.39.39v3.7c0 .53-.047.61-.5.67v.11h1.7v-.11c-.44-.047-.52-.14-.52-.67z"/>
</symbol>
<symbol id="a" overflow="visible">
<path d="m3.2-1.3c-.38.58-.7.81-1.2.81-.44 0-.77-.23-1-.67-.14-.3-.19-.55-.2-1h2.4c-.047-.5-.12-.73-.33-.97-.23-.28-.58-.45-.98-.45-.39 0-.75.14-1 .41-.36.31-.58.86-.58 1.5 0 1.1.56 1.7 1.5 1.7.73 0 1.3-.45 1.6-1.3zm-2.4-1.1c.078-.61.34-.89.81-.89.48 0 .67.22.77.89z"/>
</symbol>
<symbol id="ar" overflow="visible">
<path d="m.14-3.1c.11-.016.17-.031.25-.031.2 0 .28.12.28.5v2c0 .42-.11.53-.55.55v.11h1.7v-.11c-.41-.016-.53-.11-.53-.41v-2.2c0-.016.062-.094.12-.14.19-.19.52-.31.8-.31.33 0 .5.27.5.81v1.7c0 .44-.078.53-.52.56v.11h1.7v-.11c-.44-.016-.55-.14-.55-.62v-2c.23-.33.48-.47.84-.47.44 0 .58.2.58.84v1.6c0 .44-.062.5-.52.56v.11h1.7v-.11l-.2-.016c-.23-.016-.34-.16-.34-.47v-1.6c0-.91-.3-1.4-.89-1.4-.45 0-.84.2-1.3.66-.14-.44-.39-.66-.81-.66-.34 0-.56.11-1.2.59v-.58l-.047-.016c-.41.16-.66.23-1.1.36z"/>
</symbol>
<symbol id="as" overflow="visible">
<path d="m1.9-3.6c-1 0-1.7.75-1.7 1.8 0 1 .72 1.8 1.7 1.8.97 0 1.7-.83 1.7-1.9 0-1-.72-1.8-1.7-1.8zm-.11.22c.66 0 1.1.75 1.1 1.8 0 .88-.34 1.4-.92 1.4-.31 0-.59-.19-.75-.5-.22-.39-.34-.94-.34-1.5 0-.73.36-1.2.91-1.2z"/>
</symbol>
<symbol id="at" overflow="visible">
<path d="m3.7-3.5h-1.1v.12c.25.016.38.094.38.25 0 .062-.016.14-.047.22l-.77 2-.8-2c-.047-.11-.062-.22-.062-.28 0-.14.078-.2.34-.22v-.12h-1.5v.12c.3.016.36.094.7.89l.94 2.2c.016.047.031.094.062.16.047.14.094.2.14.2s.094-.11.22-.39l.98-2.5c.22-.52.27-.58.5-.59z"/>
</symbol>
<symbol id="b" overflow="visible">
<path d="m1.4-3.6-1.2.44v.11l.062-.016c.094-.016.19-.016.27-.016.19 0 .25.12.25.47v1.8c0 .55-.078.64-.61.67v.11h1.8v-.11c-.5-.047-.56-.12-.56-.67v-2.8zm-.38-1.7c-.2 0-.38.17-.38.39s.16.39.38.39c.23 0 .41-.16.41-.39 0-.22-.17-.39-.41-.39z"/>
</symbol>
<symbol id="au" overflow="visible">
<path d="m2.4-2.4-.031-1.1h-.094v.016c-.078.062-.078.062-.11.062-.047 0-.12-.016-.22-.047-.17-.062-.34-.094-.53-.094-.62 0-1.1.39-1.1.95 0 .42.25.73.91 1.1l.45.25c.27.16.41.34.41.58 0 .34-.25.56-.64.56-.27 0-.52-.094-.66-.27-.16-.2-.23-.38-.33-.81h-.12v1.2h.094c.062-.078.094-.094.19-.094.062 0 .17.016.34.062.22.047.44.078.56.078.61 0 1.1-.45 1.1-.98 0-.39-.19-.64-.64-.92l-.84-.5c-.22-.12-.33-.31-.33-.53 0-.3.23-.52.59-.52.44 0 .67.27.84.95z"/>
</symbol>
<symbol id="ay" overflow="visible">
<path d="m3.6-3v-.3h-.59c-.16 0-.28-.031-.44-.078l-.17-.062c-.2-.078-.41-.12-.61-.12-.72 0-1.3.56-1.3 1.3 0 .48.22.78.72 1-.14.14-.28.28-.33.31-.25.22-.36.38-.36.53 0 .17.094.27.41.42-.55.39-.75.66-.75.94 0 .41.59.75 1.3.75.59 0 1.2-.2 1.6-.53.3-.23.42-.48.42-.78 0-.47-.36-.8-.94-.83l-1-.047c-.41-.016-.59-.078-.59-.2 0-.16.25-.42.47-.48.062 0 .11.016.14.016.14.016.25.016.3.016.28 0 .59-.11.83-.33.27-.2.38-.48.38-.86 0-.23-.047-.41-.14-.66zm-2.5 3c.25.047.88.094 1.2.094.7 0 .95.11.95.39 0 .44-.58.75-1.5.75-.69 0-1.1-.23-1.1-.56 0-.19.047-.28.38-.67zm.031-2.6c0-.47.22-.73.58-.73.23 0 .44.14.56.36.14.28.23.64.23.94 0 .44-.23.7-.58.7-.47 0-.8-.5-.8-1.2z"/>
</symbol>
<symbol id="ac" overflow="visible">
<path d="m.047-3c.11-.031.19-.031.28-.031.19 0 .27.12.27.47v1.9c0 .39-.062.45-.56.55v.11h1.9v-.11c-.52-.031-.66-.14-.66-.59v-1.7c0-.25.33-.64.55-.64.047 0 .11.047.2.12.12.11.2.16.31.16.17 0 .3-.14.3-.34 0-.27-.17-.42-.42-.42-.33 0-.56.19-.94.73v-.72l-.031-.016c-.42.17-.69.28-1.2.42z"/>
</symbol>
<symbol id="ad" overflow="visible">
<path d="m3.4-.52c-.14.11-.23.16-.34.16-.17 0-.23-.11-.23-.45v-1.5c0-.41-.031-.64-.16-.81-.17-.28-.5-.44-.95-.44-.73 0-1.3.39-1.3.88 0 .17.16.33.33.33.19 0 .34-.16.34-.33 0-.031 0-.062-.016-.12s-.016-.12-.016-.19c0-.2.25-.38.55-.38.39 0 .59.23.59.64v.47c-1.2.48-1.3.55-1.7.84-.17.16-.28.42-.28.67 0 .48.34.83.81.83.34 0 .66-.16 1.1-.56.031.41.17.56.48.56.27 0 .42-.094.7-.39zm-1.2-.44c0 .23-.031.31-.2.41-.19.11-.41.17-.56.17-.27 0-.48-.27-.48-.59v-.031c0-.45.31-.73 1.2-1.1z"/>
</symbol>
<symbol id="ae" overflow="visible">
<path d="m2-3.5h-.78v-.89c0-.078 0-.11-.047-.11-.062.078-.11.14-.16.22-.3.42-.62.8-.75.83-.094.062-.14.11-.14.16 0 .016.016.031.031.047h.42v2.3c0 .66.22.98.69.98.38 0 .67-.19.92-.59l-.094-.078c-.17.19-.3.27-.47.27-.28 0-.41-.2-.41-.69v-2.2h.78z"/>
</symbol>
<symbol id="d" overflow="visible">
<path d="m.97-.77c-.23 0-.42.19-.42.44 0 .22.19.41.41.41.25 0 .45-.19.45-.41 0-.25-.2-.44-.44-.44z"/>
</symbol>
<symbol id="ai" overflow="visible">
<path d="m.89-.84c0 .58-.11.67-.75.7v.14h2.3v-.14c-.64-.031-.77-.14-.77-.7v-3.4c0-.56.11-.66.77-.69v-.16h-2.3v.16c.66.031.75.12.75.69z"/>
</symbol>
<symbol id="c" overflow="visible">
<path d="m.14-4.8h.047c.094-.016.19-.016.25-.016.25 0 .33.11.33.47v3.7c0 .42-.11.52-.61.56v.11h1.8v-.11c-.48-.031-.58-.11-.58-.55v-4.6l-.031-.016c-.41.12-.69.2-1.2.34z"/>
</symbol>
<symbol id="aj" overflow="visible">
<path d="m3.7-3.5h-1v.12c.25 0 .38.062.38.19 0 .031 0 .078-.031.12l-.75 2.1-.89-2c-.047-.11-.078-.22-.078-.3 0-.14.12-.19.45-.2v-.12h-1.6v.11c.2.031.33.12.39.25l.89 1.9.016.062.12.23c.2.38.33.66.33.78 0 .11-.17.59-.31.83-.094.2-.27.34-.38.34-.047 0-.12-.016-.2-.047-.14-.062-.27-.094-.41-.094-.17 0-.33.16-.33.34 0 .27.25.45.56.45.53 0 .89-.44 1.3-1.5l1.2-3.2c.11-.25.19-.33.38-.34z"/>
</symbol>
<symbol id="av" overflow="visible">
<path d="m.047-4.8c.11-.016.17-.016.25-.016.27 0 .34.094.34.47v3.7c0 .41-.031.44-.59.53v.11h1.8v-.11l-.16-.016c-.3-.016-.42-.12-.42-.39v-1.4l1.1 1.4.031.031c.016.031.031.047.047.078.062.078.094.12.094.16 0 .078-.078.12-.17.12h-.14v.11h1.7v-.11c-.34-.031-.58-.17-.91-.58l-1.2-1.5.23-.2c.55-.52 1-.86 1.2-.92.11-.031.22-.047.36-.047h.062v-.12h-1.6v.11c.3.016.38.047.38.16 0 .062-.062.16-.17.25l-1.1.95v-3.2l-.031-.016c-.3.094-.52.16-.97.28l-.23.062z"/>
</symbol>
<symbol id="aw" overflow="visible">
<path d="m2.7.078 1.1-.41v-.12c-.14.016-.16.016-.17.016-.28 0-.34-.094-.34-.44v-4.4l-.047-.016c-.36.12-.64.2-1.1.34v.12c.062-.016.11-.016.17-.016.28 0 .34.078.34.39v1.2c-.3-.25-.5-.34-.81-.34-.89 0-1.6.88-1.6 2 0 .98.58 1.7 1.4 1.7.44 0 .72-.16.98-.52v.48zm-.031-.86c0 .047-.047.14-.12.22-.14.16-.33.23-.56.23-.64 0-1.1-.61-1.1-1.6 0-.88.38-1.5.97-1.5.41 0 .78.36.78.78z"/>
</symbol>
<symbol id="ak" overflow="visible">
<path d="m2.3 1h-.67c-.25 0-.38-.14-.38-.41v-5.2c0-.23.11-.33.34-.33h.7v-.2h-1.6v6.3h1.6z"/>
</symbol>
<symbol id="am" overflow="visible">
<path d="m5.2-4.4v3.5c0 .64-.094.73-.7.78v.14h2.2v-.14c-.56-.047-.67-.16-.67-.7v-3.4c0-.55.11-.64.67-.69v-.16h-1.5l-1.7 3.9-1.8-3.9h-1.5v.16c.64.031.73.12.73.69v3.1c0 .8-.11.95-.75 1v.14h1.8v-.14c-.59-.031-.72-.22-.72-1v-3.1l1.9 4.2h.11z"/>
</symbol>
<symbol id="an" overflow="visible">
<path d="m5.5-.14c-.34-.031-.42-.11-.69-.67l-1.9-4.4h-.16l-1.6 3.8c-.5 1.1-.59 1.3-.97 1.3v.14h1.5v-.14c-.36 0-.52-.11-.52-.33 0-.094.016-.2.062-.3l.36-.91h2l.31.75c.094.2.16.41.16.52 0 .19-.14.25-.55.27v.14h2zm-3.8-1.8.89-2.1.89 2.1z"/>
</symbol>
<symbol id="ao" overflow="visible">
<path d="m3.5-5.2h-.16c-.031.19-.12.27-.25.27-.078 0-.2-.031-.34-.094-.28-.11-.56-.17-.81-.17-.34 0-.67.14-.94.36-.27.23-.41.56-.41.97 0 .62.34 1 1.2 1.5.56.28.97.61 1.2.89.078.11.11.27.11.45 0 .52-.39.88-.95.88-.69 0-1.2-.42-1.6-1.4h-.17l.23 1.6h.17c0-.14.094-.25.2-.25.094 0 .22.031.38.094.28.11.59.17.91.17.89 0 1.6-.61 1.6-1.4 0-.64-.42-1.1-1.5-1.7-.8-.45-1.1-.8-1.1-1.2 0-.44.33-.72.8-.72.34 0 .67.14.95.42.23.25.34.45.47.91h.19z"/>
</symbol>
<symbol id="ap" overflow="visible">
<path d="m3.2-5h.2c.23.016.33.078.33.23 0 .17-.17.41-.61.8l-1.4 1.2v-1.6c0-.56.078-.64.7-.69v-.16h-2.2v.16c.59.047.69.14.69.69v3.4c0 .64-.078.73-.69.78v.14h2.2v-.14c-.59-.047-.69-.14-.69-.7v-1.5l.2-.16.81.81c.59.58 1 1.1 1 1.3 0 .11-.11.17-.33.17-.047 0-.12 0-.22.016v.14h2.4v-.14c-.41-.016-.52-.094-1.2-.84l-1.8-1.9 1.5-1.5c.53-.5.64-.56 1.2-.59v-.16h-2z"/>
</symbol>
<symbol id="aq" overflow="visible">
<path d="m.27 1v.19h1.6v-6.3h-1.6v.2h.66c.27 0 .39.12.39.39v5.2c0 .23-.11.34-.36.34z"/>
</symbol>
</defs>
<g transform="translate(-139 -158)">
<g transform="matrix(1.1 0 0 1.1 -16 -13)">
<path d="m146 188h216" fill="none" stroke="#000" stroke-miterlimit="10" stroke-width=".75"/>
<path d="m146 234h216" fill="none" stroke="#000" stroke-miterlimit="10" stroke-width=".75"/>
<g fill="#fdeed9">
<path d="m166 205h17v-14h-17z"/>
<path d="m246 205h9.7v-14h-9.7z"/>
<path d="m166 219h17v-14h-17z"/>
<path d="m258 219h9.7v-14h-9.7z"/>
<path d="m166 232h17v-14h-17z"/>
<path d="m258 232h9.7v-14h-9.7z"/>
<path d="m323 232h9.5v-14h-9.5z"/>
</g>
<path d="m184 205h24v-14h-24z" fill="#fdbd87"/>
<path d="m268 219h23v-14h-23z" fill="#fdbd87"/>
<g fill="#fff5eb">
<path d="m208 205h10v-14h-10z"/>
<path d="m239 205h7.1v-14h-7.1z"/>
<path d="m278 205h21v-14h-21z"/>
<path d="m208 219h10v-14h-10z"/>
<path d="m251 219h7.1v-14h-7.1z"/>
<path d="m320 219h7.1v-14h-7.1z"/>
<path d="m251 232h7.1v-14h-7.1z"/>
<path d="m333 232h7.1v-14h-7.1z"/>
<path d="m290 232h33v-14h-33z"/>
<path d="m308 205h7.1v-14h-7.1z"/>
<path d="m208 232h10v-14h-10z"/>
</g>
<path d="m218 205h21v-14h-21z" fill="#fa8c57"/>
<path d="m290 219h21v-14h-21z" fill="#fa8c57"/>
<g fill="#fde3bd">
<path d="m256 205h23v-14h-23z"/>
<path d="m299 205h9.5v-14h-9.5z"/>
<path d="m184 219h24v-14h-24z"/>
<path d="m218 219h33v-14h-33z"/>
<path d="m311 219h9.5v-14h-9.5z"/>
<path d="m218 232h33v-14h-33z"/>
<path d="m268 232h23v-14h-23z"/>
</g>
<path d="m184 232h24v-14h-24z" fill="#ffbd87"/>
<g transform="translate(-160 -208)">
<g transform="translate(0,408)">
<use x="311.30014" xlink:href="#af"/>
<use x="315.09177" xlink:href="#ag"/>
<use x="329.09003" xlink:href="#ah"/>
<use x="333.81796" xlink:href="#al"/>
<use x="337.68695" xlink:href="#a"/>
<use x="346.28098" xlink:href="#ar"/>
<use x="352.30115" xlink:href="#as"/>
<use x="356.05408" xlink:href="#at"/>
<use x="359.9231" xlink:href="#b"/>
<use x="362.07425" xlink:href="#a"/>
<use x="370.66852" xlink:href="#b"/>
<use x="372.81967" xlink:href="#au"/>
<use x="380.98825" xlink:href="#ay"/>
<use x="384.85727" xlink:href="#ac"/>
<use x="387.43402" xlink:href="#a"/>
<use x="390.86969" xlink:href="#ad"/>
<use x="394.30536" xlink:href="#ae"/>
<use x="401.61484" xlink:href="#d"/>
<use x="408.70782" xlink:href="#ai"/>
<use x="418.37775" xlink:href="#ac"/>
<use x="420.9545" xlink:href="#a"/>
<use x="424.39017" xlink:href="#ad"/>
<use x="427.82584" xlink:href="#c"/>
<use x="429.97699" xlink:href="#c"/>
<use x="432.12817" xlink:href="#aj"/>
<use x="441.15576" xlink:href="#c"/>
<use x="443.30692" xlink:href="#b"/>
<use x="445.4581" xlink:href="#av"/>
<use x="449.24969" xlink:href="#a"/>
<use x="452.68539" xlink:href="#aw"/>
<use x="461.7124" xlink:href="#b"/>
<use x="463.86359" xlink:href="#ae"/>
<use x="471.17349" xlink:href="#d"/>
</g>
<g transform="translate(0 422)">
<use x="310.72021" xlink:href="#az"/>
<use x="314.51184" xlink:href="#af"/>
<use x="318.30347" xlink:href="#ag"/>
<use x="329.09003" xlink:href="#ah"/>
<use x="333.81796" xlink:href="#al"/>
<use x="337.68695" xlink:href="#a"/>
<use x="346.28098" xlink:href="#ar"/>
<use x="352.30115" xlink:href="#as"/>
<use x="356.05408" xlink:href="#at"/>
<use x="359.9231" xlink:href="#b"/>
<use x="362.07425" xlink:href="#a"/>
<use x="370.66852" xlink:href="#b"/>
<use x="372.81967" xlink:href="#au"/>
<use x="380.98825" xlink:href="#ak"/>
<use x="383.565" xlink:href="#am"/>
<use x="390.44409" xlink:href="#an"/>
<use x="396.03094" xlink:href="#ao"/>
<use x="400.33328" xlink:href="#ap"/>
<use x="405.9201" xlink:href="#aq"/>
<use x="413.65454" xlink:href="#d"/>
<use x="420.74838" xlink:href="#ai"/>
<use x="430.41745" xlink:href="#ac"/>
<use x="432.9942" xlink:href="#a"/>
<use x="436.42987" xlink:href="#ad"/>
<use x="439.86554" xlink:href="#c"/>
<use x="442.01672" xlink:href="#c"/>
<use x="444.16788" xlink:href="#aj"/>
<use x="453.19547" xlink:href="#c"/>
<use x="455.34665" xlink:href="#b"/>
<use x="457.4978" xlink:href="#av"/>
<use x="461.28943" xlink:href="#a"/>
<use x="464.7251" xlink:href="#aw"/>
<use x="473.75299" xlink:href="#b"/>
<use x="475.90414" xlink:href="#ae"/>
<use x="483.2132" xlink:href="#d"/>
</g>
<g transform="translate(0 436)">
<use x="311.30014" xlink:href="#ax"/>
<use x="315.09177" xlink:href="#af"/>
<use x="318.88339" xlink:href="#ag"/>
<use x="329.09003" xlink:href="#ah"/>
<use x="333.81796" xlink:href="#al"/>
<use x="337.68695" xlink:href="#a"/>
<use x="346.28098" xlink:href="#ar"/>
<use x="352.30115" xlink:href="#as"/>
<use x="356.05408" xlink:href="#at"/>
<use x="359.9231" xlink:href="#b"/>
<use x="362.07425" xlink:href="#a"/>
<use x="370.66852" xlink:href="#b"/>
<use x="372.81967" xlink:href="#au"/>
<use x="380.98825" xlink:href="#ak"/>
<use x="383.565" xlink:href="#am"/>
<use x="390.44409" xlink:href="#an"/>
<use x="396.03094" xlink:href="#ao"/>
<use x="400.33328" xlink:href="#ap"/>
<use x="405.9201" xlink:href="#aq"/>
<use x="413.65454" xlink:href="#d"/>
<use x="420.74838" xlink:href="#ai"/>
<use x="430.41745" xlink:href="#ac"/>
<use x="432.9942" xlink:href="#a"/>
<use x="436.42987" xlink:href="#ad"/>
<use x="439.86554" xlink:href="#c"/>
<use x="442.01672" xlink:href="#c"/>
<use x="444.16788" xlink:href="#aj"/>
<use x="453.19547" xlink:href="#ak"/>
<use x="455.77222" xlink:href="#am"/>
<use x="462.65131" xlink:href="#an"/>
<use x="468.23816" xlink:href="#ao"/>
<use x="472.54047" xlink:href="#ap"/>
<use x="478.12732" xlink:href="#aq"/>
<use x="485.86261" xlink:href="#b"/>
<use x="488.01376" xlink:href="#ae"/>
<use x="495.32367" xlink:href="#d"/>
</g>
</g>
</g>
<g transform="translate(0,10)">
<path d="m140 296h232v-59h-232z" fill="#ebebeb"/>
<g fill="none" stroke="#fff" stroke-linecap="square" stroke-linejoin="round" stroke-miterlimit="10">
<path d="m150 296v-59"/>
<path d="m192 296v-59"/>
<path d="m234 296v-59"/>
<path d="m277 296v-59"/>
<path d="m319 296v-59"/>
<path d="m361 296v-59"/>
<g stroke-width=".5">
<path d="m171 296v-59"/>
<path d="m214 296v-59"/>
<path d="m256 296v-59"/>
<path d="m298 296v-59"/>
<path d="m340 296v-59"/>
</g>
<path d="m140 296h232"/>
<path d="m140 284h232"/>
<path d="m140 272h232"/>
<path d="m140 261h232"/>
<path d="m140 249h232"/>
<g stroke-width=".5">
<path d="m140 290h232"/>
<path d="m140 278h232"/>
<path d="m140 266h232"/>
<path d="m140 255h232"/>
<path d="m140 243h232"/>
</g>
</g>
<g fill-opacity=".35">
<path d="m150 243v8.7l21 40 21-.46 21-5.4 21 .27 21 2.9 21-1.9 21-1.7 21 4 21-5.1 21 5.5-21-16-21 1.6-21 4.3-21-5.5-42-5.2-21 3.1-21 5.9-21-6.8z" fill="#d95e57"/>
<path d="m150 243v8.7l21 26 21 16 21-2.8 21-6.2 21 6.5 21-1.6 21-6.4 21-3 21 3.6 21 6.8-21-19-21 2.5-21 5.2-21-5-21-2.1-21-.45-21-5.2-21-6.5-21 3.5z" fill="#b8d957"/>
<path d="m150 243v8.7l21-1.8 21 16 21-2.2 21 11 21-7.5 21 1.6 21 11 21-7.9 21 12 21 6.5-21-31-21 .18-21-2.1-21 2.4-21-6.7-21-2.5-21-.062-21 .28-21-3.2z" fill="#57d994"/>
<path d="m150 243v8.7l21 1.7 21 2.1 21 2.4 21 1.2 21 3.2 21-6 21 12 21 2.3 21 11 21 8.9-21-14-21-19-21-3.1-21-1.6-21-5.2-21 .7-21-2.8-21-.039-21-2.6z" fill="#c757d9"/>
</g>
<g stroke-linejoin="round" stroke-miterlimit="10" stroke-width=".89">
<g fill="none">
<path d="m150 247 21 35 21 3.3 21-5.7 21-1.5 21 2.6 21 .66 21 1.9 21-.14 21-3.4 21 11" stroke="#f8756b"/>
<path d="m150 247 21 23 21 5.8 21 2.3 21-.31 21 3.5 21 .28 21-.68 21-4.1 21 .48 21 13" stroke="#a1a300"/>
<path d="m150 247 21 1.7 21 9.2 21-1.1 21 4.7 21-1.9 42 8.2 21-2.5 21 5.5 21 19" stroke="#00bd7d"/>
<path d="m150 247 21 .7 21 2.4 21 1.1 21 2.2 42 1.1 21 6.2 21 2.8 21 15 21 11" stroke="#e668f3"/>
</g>
<path d="m214 259 2.5-2.5-2.5-2.5-2.5 2.5z" fill="#00b0f5" stroke="#00b0f5"/>
<g fill="#a1a300" stroke="#a1a300">
<path d="m150 245-1.8 3.5h3.5z"/>
<path d="m171 268-1.8 3.5h3.5z"/>
<path d="m192 274-1.8 3.5h3.5z"/>
<path d="m214 276-1.8 3.5h3.5z"/>
<path d="m234 276-1.8 3.5h3.5z"/>
<path d="m256 280-1.8 3.5h3.5z"/>
<path d="m277 280-1.8 3.5h3.5z"/>
<path d="m298 279-1.8 3.5h3.5z"/>
<path d="m319 275-1.8 3.5h3.5z"/>
<path d="m340 276-1.8 3.5h3.5z"/>
<path d="m361 289-1.8 3.5h3.5z"/>
</g>
<g fill="#f8756b" stroke="#f8756b">
<path d="m150 249c.47 0 .92-.19 1.3-.52s.52-.79.52-1.3-.19-.92-.52-1.3-.79-.52-1.3-.52-.92.19-1.3.52c-.33.33-.52.79-.52 1.3s.19.92.52 1.3c.33.33.79.52 1.3.52z"/>
<path d="m171 284c.47 0 .92-.18 1.3-.52.33-.34.52-.79.52-1.3 0-.47-.19-.92-.52-1.3-.33-.33-.78-.52-1.3-.52-.47 0-.92.19-1.3.52-.33.33-.52.78-.52 1.3 0 .47.18.92.52 1.3.34.33.79.52 1.3.52z"/>
<path d="m192 287c.47 0 .92-.18 1.3-.52.33-.34.52-.79.52-1.3 0-.47-.19-.92-.52-1.3-.33-.33-.78-.52-1.3-.52-.47 0-.92.19-1.2.52s-.52.78-.52 1.3c0 .47.19.92.52 1.3.33.33.78.52 1.2.52z"/>
<path d="m214 281c.47 0 .92-.19 1.2-.52.34-.33.52-.78.52-1.3 0-.47-.18-.92-.52-1.2-.33-.34-.78-.52-1.2-.52-.47 0-.92.18-1.3.52-.33.33-.52.78-.52 1.2 0 .47.19.92.52 1.3.33.33.78.52 1.3.52z"/>
<path d="m234 280c.47 0 .92-.19 1.3-.52s.52-.78.52-1.3c0-.47-.19-.92-.52-1.2s-.79-.52-1.3-.52c-.47 0-.92.19-1.3.52-.33.33-.52.78-.52 1.2 0 .47.19.92.52 1.3.33.33.78.52 1.3.52z"/>
<path d="m256 282c.47 0 .92-.19 1.3-.52s.52-.79.52-1.3-.19-.92-.52-1.3c-.33-.33-.79-.52-1.3-.52s-.92.19-1.3.52c-.33.33-.52.79-.52 1.3s.19.92.52 1.3c.33.33.79.52 1.3.52z"/>
<path d="m277 283c.47 0 .92-.19 1.3-.52.33-.33.52-.79.52-1.3s-.19-.92-.52-1.3c-.33-.33-.79-.52-1.3-.52s-.92.19-1.3.52-.52.79-.52 1.3.19.92.52 1.3.79.52 1.3.52z"/>
<path d="m298 285c.47 0 .92-.18 1.3-.52.33-.34.52-.79.52-1.3 0-.47-.19-.92-.52-1.3-.33-.33-.78-.52-1.3-.52-.47 0-.92.19-1.3.52-.33.33-.52.78-.52 1.3 0 .47.18.92.52 1.3.34.33.79.52 1.3.52z"/>
<path d="m319 285c.47 0 .92-.19 1.3-.52.33-.33.52-.79.52-1.3 0-.47-.19-.92-.52-1.3s-.78-.52-1.3-.52c-.47 0-.92.19-1.2.52s-.52.78-.52 1.3c0 .47.19.92.52 1.3.33.33.78.52 1.2.52z"/>
<path d="m340 281c.47 0 .92-.19 1.2-.52.34-.33.52-.78.52-1.3 0-.47-.18-.92-.52-1.3-.33-.33-.78-.52-1.2-.52-.47 0-.92.18-1.3.52-.33.34-.52.79-.52 1.3 0 .47.19.92.52 1.3.33.33.78.52 1.3.52z"/>
<path d="m361 292c.47 0 .92-.19 1.3-.52s.52-.79.52-1.3-.19-.92-.52-1.3-.79-.52-1.3-.52c-.47 0-.92.19-1.3.52-.33.33-.52.79-.52 1.3s.19.92.52 1.3c.33.33.78.52 1.3.52z"/>
</g>
<g fill="#00bd7d" stroke="#00bd7d">
<path d="m149 249h3.5v-3.5h-3.5z"/>
<path d="m170 251h3.5v-3.5h-3.5z"/>
<path d="m191 260h3.5v-3.5h-3.5z"/>
<path d="m212 259h3.5v-3.5h-3.5z"/>
<path d="m233 264h3.5v-3.5h-3.5z"/>
<path d="m254 262h3.5v-3.5h-3.5z"/>
<path d="m275 266h3.5v-3.5h-3.5z"/>
<path d="m296 270h3.5v-3.5h-3.5z"/>
<path d="m317 267h3.5v-3.5h-3.5z"/>
<path d="m338 273h3.5v-3.5h-3.5z"/>
<path d="m359 292h3.5v-3.5h-3.5z"/>
</g>
<g fill="#e668f3" stroke="#e668f3">
<path d="m150 249 1.8-3.5h-3.5z"/>
<path d="m171 250 1.8-3.5h-3.5z"/>
<path d="m192 252 1.8-3.5h-3.5z"/>
<path d="m214 253 1.8-3.5h-3.5z"/>
<path d="m234 255 1.8-3.5h-3.5z"/>
<path d="m256 256 1.8-3.5h-3.5z"/>
<path d="m277 256 1.8-3.5h-3.5z"/>
<path d="m298 263 1.8-3.5h-3.5z"/>
<path d="m319 265 1.8-3.5h-3.5z"/>
<path d="m340 281 1.8-3.5h-3.5z"/>
<path d="m361 292 1.8-3.5h-3.5z"/>
</g>
</g>
</g>
</g>
</svg>
